# File exported by ZBrush version 2026
# www.zbrush.com
g ZBrushPolyMesh3D
#Vertex Count 964
#Face Count 1000
#Auto scale x=1.000000 y=1.000000 z=1.000000
#Auto offset x=0.000000 y=0.000000 z=0.000000
v -0.16909693 0.68594139 0.87477159
v -0.17102691 0.68715733 0.87334585
v -0.17128007 0.68640309 0.87346845
v -0.17138801 0.68567806 0.87369334
v -0.17133703 0.68505245 0.87399494
v -0.17113114 0.6845889 0.87433683
v -0.17079359 0.68433618 0.87467891
v -0.17036214 0.68432271 0.87498337
v -0.16988405 0.68455237 0.8752197
v -0.16940963 0.6850028 0.87536841
v -0.16898578 0.68562883 0.87542092
v -0.16865158 0.68636608 0.87537914
v -0.16843506 0.68713855 0.87525111
v -0.16835245 0.68786841 0.87505066
v -0.16840824 0.68848377 0.87479376
v -0.16859614 0.68892538 0.87449938
v -0.16889995 0.68915301 0.87418943
v -0.16929478 0.68914818 0.8738898
v -0.16974748 0.68891388 0.87362945
v -0.17021718 0.68847364 0.87343645
v -0.17065891 0.68786948 0.87333613
v -0.17604121 0.69156324 0.87045234
v -0.1765439 0.69005447 0.87067949
v -0.17674469 0.68860566 0.87111401
v -0.17661739 0.68735665 0.87170469
v -0.17617538 0.68643331 0.87237942
v -0.17546913 0.68593132 0.87305724
v -0.17457889 0.68590682 0.87366414
v -0.17360182 0.68636685 0.87414073
v -0.17263947 0.68726766 0.87444859
v -0.17178566 0.68851828 0.8745718
v -0.17111752 0.68999087 0.8745116
v -0.17068998 0.69153517 0.87428224
v -0.1705347 0.69299525 0.87390679
v -0.17066028 0.69422632 0.87341362
v -0.17105419 0.69511008 0.87283766
v -0.17168474 0.69556552 0.87222141
v -0.17250041 0.69555485 0.87161672
v -0.17343226 0.69508379 0.87108147
v -0.1743958 0.69420093 0.8706761
v -0.17529715 0.69298976 0.87045431
v -0.18422432 0.69891232 0.86621558
v -0.1849792 0.69663918 0.86651712
v -0.18525053 0.69446182 0.86713957
v -0.18500459 0.69259083 0.86800408
v -0.18427215 0.69121414 0.86900085
v -0.18314048 0.69047337 0.87000858
v -0.18174028 0.69044935 0.87091726
v -0.18022385 0.69114983 0.87164211
v -0.17874594 0.69250804 0.87212926
v -0.17744696 0.69438862 0.87235438
v -0.17643944 0.69660043 0.87231618
v -0.1758034 0.69891971 0.87203037
v -0.17558278 0.70111143 0.87152349
v -0.17578792 0.70295667 0.87083119
v -0.17640869 0.70428156 0.86999613
v -0.17740894 0.70496749 0.8690744
v -0.17869287 0.70494574 0.86814844
v -0.18015125 0.70422583 0.86731046
v -0.18167074 0.70289522 0.86665225
v -0.1830784 0.70106595 0.86626684
v -0.19559434 0.7087928 0.86080616
v -0.19660355 0.70570099 0.86115413
v -0.19691188 0.70275461 0.86195623
v -0.19649392 0.7002511 0.86309677
v -0.19540715 0.69843798 0.86441814
v -0.19377388 0.69748246 0.86575973
v -0.19179248 0.69748938 0.86697405
v -0.18967926 0.69846236 0.86795765
v -0.18764196 0.70030576 0.86864614
v -0.18585017 0.70282667 0.86901474
v -0.18450419 0.70581907 0.8690384
v -0.18367379 0.70895385 0.86874032
v -0.18341286 0.71191954 0.86814457
v -0.18374554 0.71442353 0.86728352
v -0.18464215 0.71621823 0.86620682
v -0.18605077 0.71713316 0.86498206
v -0.18786363 0.71708852 0.86371171
v -0.18992972 0.71609556 0.86252296
v -0.19205412 0.71425259 0.86155813
v -0.19401496 0.71173751 0.86095261
v -0.21061283 0.72077953 0.85518896
v -0.21185745 0.71676361 0.85548824
v -0.21213243 0.71297198 0.85641044
v -0.21139772 0.70976209 0.85779631
v -0.20977938 0.7074967 0.85935068
v -0.20738072 0.70632821 0.8607974
v -0.20460665 0.70639908 0.86213761
v -0.20180943 0.70770674 0.8633663
v -0.19916948 0.71011239 0.86427396
v -0.19689501 0.71338361 0.8648045
v -0.19514054 0.71719509 0.86495441
v -0.19408647 0.72121012 0.86470007
v -0.19376269 0.72501468 0.86406689
v -0.19425445 0.72824317 0.86306697
v -0.19547063 0.73055315 0.86176234
v -0.19744457 0.73173147 0.86030721
v -0.20007817 0.73167097 0.85899305
v -0.20301969 0.73036599 0.8576892
v -0.20591829 0.72793674 0.85642099
v -0.20853869 0.72462618 0.85552609
v -0.22974541 0.73481369 0.84889394
v -0.23098309 0.72964268 0.84905815
v -0.23091766 0.72473132 0.85013717
v -0.2294459 0.72054016 0.85172665
v -0.22697342 0.71769881 0.8534547
v -0.22383636 0.71631956 0.85547226
v -0.22024543 0.7165125 0.85719209
v -0.21660782 0.71823811 0.858585
v -0.21327818 0.7213099 0.85970193
v -0.21049957 0.72545886 0.8604471
v -0.20841337 0.73028683 0.8607853
v -0.20721466 0.73534411 0.86068338
v -0.2069621 0.74015319 0.86027813
v -0.20821163 0.74432307 0.85967981
v -0.21032543 0.74731159 0.85850119
v -0.21311675 0.74879247 0.85668075
v -0.21645729 0.74868929 0.85466086
v -0.22020056 0.74702382 0.85268312
v -0.22399349 0.74395054 0.85095477
v -0.22733563 0.73974478 0.84961247
v -0.25255975 0.7495231 0.83850759
v -0.25363978 0.74364191 0.83893734
v -0.25318583 0.73802465 0.8406465
v -0.25096455 0.73312616 0.84294641
v -0.24747876 0.72952413 0.84578168
v -0.24310678 0.72764164 0.84859758
v -0.23841729 0.7278167 0.85078072
v -0.23395702 0.72992736 0.85271835
v -0.23002412 0.73374491 0.85423034
v -0.22685374 0.73889732 0.85524725
v -0.22465604 0.74492675 0.85582053
v -0.22391243 0.75120425 0.85577076
v -0.22452831 0.75695127 0.85487812
v -0.22622396 0.76161027 0.85322719
v -0.22906553 0.76480186 0.85116273
v -0.23265582 0.76619088 0.84849697
v -0.23693767 0.76574397 0.84568846
v -0.24162113 0.76357662 0.84307652
v -0.24614018 0.75992935 0.84081882
v -0.24995891 0.7551164 0.83921307
v -0.27851653 0.76697731 0.82207208
v -0.27877229 0.75961494 0.82318598
v -0.27698341 0.75222337 0.82607692
v -0.27341899 0.7457925 0.82958883
v -0.26899915 0.74141955 0.83367824
v -0.26395008 0.73937767 0.83755266
v -0.25874748 0.73969775 0.84096467
v -0.25380846 0.74224793 0.84363931
v -0.24949404 0.74670076 0.84537828
v -0.24617882 0.75257366 0.84621536
v -0.24411015 0.75922393 0.84619998
v -0.24348831 0.76597297 0.84548521
v -0.24413082 0.77211922 0.84384232
v -0.24604636 0.77721548 0.84140366
v -0.24925661 0.78095126 0.83838182
v -0.25377732 0.78307068 0.83514946
v -0.25910261 0.7833451 0.83151561
v -0.26507017 0.78182673 0.82797932
v -0.27096629 0.7785108 0.82485199
v -0.27575278 0.77345502 0.82267034
v -0.30709862 0.79326146 0.79679119
v -0.3080084 0.78236961 0.79910898
v -0.30569788 0.77181601 0.80392283
v -0.30032941 0.76303422 0.81024295
v -0.29338941 0.75665092 0.81677621
v -0.28642615 0.75296187 0.8225817
v -0.28005743 0.7523306 0.82721835
v -0.27444699 0.75460499 0.83037024
v -0.2698681 0.75932854 0.83219844
v -0.26653757 0.76588481 0.83283442
v -0.26470634 0.77357751 0.83249676
v -0.26440566 0.78170323 0.83111995
v -0.26579785 0.78972315 0.82884091
v -0.26876616 0.79693955 0.82533031
v -0.27339559 0.80286794 0.82080853
v -0.27929604 0.80712693 0.81544697
v -0.28596586 0.80953484 0.80970925
v -0.29278773 0.8099339 0.80418622
v -0.29900577 0.8077802 0.79945731
v -0.30393165 0.80226779 0.7969436
v -0.32936966 0.8242532 0.77051997
v -0.32951587 0.81051772 0.7749874
v -0.32856273 0.79435342 0.78129833
v -0.3249813 0.78134566 0.78781122
v -0.31889876 0.77311867 0.79476976
v -0.31172087 0.76879054 0.80171233
v -0.30460387 0.76796853 0.80730408
v -0.29859054 0.77048838 0.8112573
v -0.29395052 0.77592957 0.81334239
v -0.29082101 0.78380852 0.81372702
v -0.28916713 0.79343283 0.81262433
v -0.2890408 0.80385828 0.81022787
v -0.29079011 0.81407707 0.80607986
v -0.29507067 0.82301425 0.79985237
v -0.30167067 0.83000344 0.7920441
v -0.30921265 0.83476108 0.78381067
v -0.3162083 0.83758652 0.77688318
v -0.32180208 0.83855438 0.77207481
v -0.32567319 0.8371703 0.76930338
v -0.328188 0.83278113 0.76879316
v -0.34381374 0.84149032 0.75373333
v -0.34500497 0.8302077 0.75665664
v -0.34541317 0.81423062 0.76218116
v -0.34332978 0.79802936 0.76915389
v -0.3388293 0.78751879 0.77638298
v -0.33274719 0.78301411 0.78235971
v -0.32642939 0.78329443 0.78712582
v -0.3204655 0.78761464 0.79007142
v -0.3156493 0.79562497 0.79144883
v -0.31243261 0.80627948 0.79062372
v -0.3119485 0.81784576 0.78774291
v -0.31394752 0.82852119 0.78216904
v -0.31828945 0.83729803 0.7757743
v -0.32320424 0.84392851 0.7694782
v -0.32788184 0.84866821 0.76404851
v -0.33194664 0.85169303 0.75982075
v -0.33523732 0.85319227 0.75649678
v -0.33808901 0.85341221 0.75421643
v -0.3404023 0.85197818 0.75288772
v -0.34223395 0.84826833 0.75260806
v -0.35604769 0.84703517 0.74212306
v -0.35983055 0.83544164 0.74326461
v -0.36330544 0.81993466 0.74637872
v -0.3630484 0.80495387 0.75234556
v -0.35854399 0.7954927 0.75940245
v -0.35205265 0.79243803 0.76559835
v -0.34484571 0.79499471 0.76962959
v -0.33850571 0.80271536 0.77181637
v -0.33377063 0.81398397 0.7717399
v -0.33136871 0.82574957 0.76938575
v -0.33144575 0.83591115 0.76596641
v -0.33287966 0.843939 0.76167899
v -0.33529326 0.85016566 0.75764495
v -0.33799108 0.85491782 0.75387823
v -0.3406552 0.85839867 0.750714
v -0.34297135 0.86055713 0.7478559
v -0.34515747 0.86140209 0.74545979
v -0.3474074 0.86089497 0.7436372
v -0.34986788 0.85876852 0.7424159
v -0.35274806 0.85443413 0.74195182
v -0.39463654 0.82894557 0.71789008
v -0.40413722 0.81348043 0.71533542
v -0.40456301 0.80147248 0.71981358
v -0.39797285 0.7936331 0.72848582
v -0.38875272 0.78939521 0.73839384
v -0.37851351 0.78960788 0.7462421
v -0.36823082 0.79543381 0.75169962
v -0.35865783 0.80749219 0.75512135
v -0.35072061 0.82237815 0.75578028
v -0.34602481 0.83508259 0.75456744
v -0.34429058 0.84451401 0.75243443
v -0.34437704 0.85149473 0.74992978
v -0.34541961 0.8567624 0.747132
v -0.34705215 0.86048978 0.74415582
v -0.34925514 0.86305439 0.74152028
v -0.3521147 0.86422687 0.73912483
v -0.35588175 0.86357587 0.73672592
v -0.36068067 0.86037164 0.73373532
v -0.36819586 0.85401266 0.73022133
v -0.38010579 0.84350061 0.72477304
v -0.44801139 0.79678148 0.68089461
v -0.44667348 0.78970879 0.68470412
v -0.44239097 0.78389453 0.69123011
v -0.43504989 0.77975589 0.69972455
v -0.42619979 0.77797514 0.7094624
v -0.4159502 0.77908092 0.71845758
v -0.40625739 0.78326171 0.72574317
v -0.39618879 0.79282057 0.73085647
v -0.38218238 0.81083619 0.73547589
v -0.36760786 0.83055323 0.73952895
v -0.360082 0.84375709 0.74014377
v -0.3580296 0.85184395 0.73902708
v -0.35883185 0.85658615 0.73680508
v -0.36179819 0.85861116 0.73352348
v -0.36807146 0.85777378 0.7291966
v -0.38028162 0.85285747 0.72182411
v -0.40227884 0.84215819 0.70756357
v -0.42668065 0.82722491 0.69150614
v -0.44008275 0.81460773 0.68296831
v -0.44625484 0.80493193 0.68018913
v -0.47696417 0.78130954 0.65579009
v -0.47574964 0.77522087 0.65919297
v -0.47232919 0.77013838 0.66459387
v -0.46725574 0.76665782 0.67180007
v -0.4601981 0.76517921 0.67981582
v -0.45278731 0.76626741 0.68788188
v -0.4448508 0.77002173 0.69427704
v -0.43830105 0.77654784 0.69875788
v -0.43306866 0.78479278 0.70063775
v -0.42987173 0.79425346 0.70079898
v -0.42713666 0.8044151 0.69918996
v -0.42667067 0.81313943 0.69666361
v -0.43041247 0.81727892 0.69157391
v -0.4384095 0.81710851 0.68436193
v -0.44750988 0.81438517 0.67654538
v -0.45567998 0.81058764 0.66949582
v -0.4628067 0.80626773 0.66366922
v -0.46881699 0.80091464 0.65902626
v -0.47341051 0.79465681 0.65590375
v -0.47603541 0.7879315 0.65466117
v -0.50055426 0.76614546 0.63381981
v -0.49890649 0.76112657 0.63722103
v -0.49564206 0.75702238 0.64223474
v -0.49164745 0.75430661 0.64852953
v -0.48695099 0.75325107 0.65512645
v -0.48149082 0.75391805 0.66063785
v -0.47702378 0.75682461 0.66534411
v -0.47277584 0.76169163 0.66821849
v -0.4696587 0.76812046 0.66936039
v -0.46797815 0.77529901 0.66895383
v -0.46775212 0.78210407 0.66686844
v -0.46926322 0.78767406 0.6634314
v -0.4722881 0.79141509 0.65891712
v -0.47635772 0.79309409 0.65366619
v -0.48131766 0.79285228 0.64830732
v -0.48643574 0.79089337 0.64323574
v -0.49114871 0.78734672 0.63845044
v -0.49560278 0.78274387 0.63492411
v -0.49855503 0.77733397 0.63264131
v -0.50038003 0.77167165 0.63225275
v -0.51999121 0.75182229 0.61344224
v -0.51839423 0.7478792 0.6169117
v -0.51580762 0.74472022 0.62171548
v -0.51248264 0.74260723 0.62725585
v -0.50826811 0.74170553 0.63260722
v -0.50430125 0.74242287 0.63768005
v -0.50097101 0.74475157 0.64167988
v -0.49789053 0.74842435 0.6437639
v -0.49590289 0.75328195 0.6442601
v -0.49530807 0.75877744 0.64330059
v -0.49584698 0.76412957 0.6409741
v -0.49745717 0.76864886 0.63754397
v -0.50018197 0.77183455 0.6333847
v -0.50383514 0.77343493 0.62887728
v -0.50760299 0.77335572 0.62414896
v -0.51135093 0.77173948 0.61961317
v -0.51514232 0.76891511 0.61585938
v -0.51795005 0.76513868 0.61301541
v -0.51968461 0.76078742 0.61149025
v -0.52038365 0.75622737 0.61158263
v -0.53466028 0.73972338 0.59526914
v -0.53318893 0.73646825 0.59848743
v -0.53102791 0.73384302 0.60272824
v -0.5284065 0.73211365 0.60760462
v -0.52566897 0.731516 0.61267888
v -0.52297294 0.7320947 0.61713862
v -0.52047658 0.73381322 0.6203385
v -0.51842725 0.73660147 0.62203216
v -0.51730722 0.74026006 0.62222963
v -0.51723057 0.74437093 0.62101507
v -0.51805532 0.74841982 0.61857038
v -0.51964932 0.75190258 0.61518305
v -0.52193439 0.75445026 0.61121803
v -0.52478277 0.75587403 0.60708004
v -0.52771574 0.75610297 0.60301876
v -0.53029656 0.75513958 0.59918451
v -0.53243881 0.75312703 0.5959286
v -0.53410172 0.7503162 0.593737
v -0.53511893 0.74695861 0.59285259
v -0.53532195 0.74332374 0.59335315
v -0.54709929 0.72877907 0.57902395
v -0.54581832 0.72607833 0.58200609
v -0.54403215 0.72391444 0.5858668
v -0.54177391 0.72247356 0.59011793
v -0.53900075 0.72190809 0.59418243
v -0.5363928 0.72238212 0.59779328
v -0.53463041 0.72390264 0.60068571
v -0.53346651 0.72625863 0.60229158
v -0.53293931 0.72921091 0.60244691
v -0.53311657 0.73246872 0.60128164
v -0.53397071 0.73568433 0.59902304
v -0.53539615 0.7385084 0.59596008
v -0.53729933 0.74064999 0.59240424
v -0.53968888 0.74192208 0.58869779
v -0.54215002 0.74219101 0.58500307
v -0.54421633 0.74146992 0.58168357
v -0.54595047 0.739901 0.57908344
v -0.5471937 0.73761469 0.57734948
v -0.54781389 0.73482012 0.57666206
v -0.54778188 0.73178327 0.57720524
v -0.55736196 0.71933633 0.5651834
v -0.55622375 0.71711176 0.56778609
v -0.55473619 0.71535342 0.5711205
v -0.55300527 0.7142207 0.5748192
v -0.55109334 0.71379661 0.57837671
v -0.54911768 0.71413379 0.58136856
v -0.54741507 0.71525567 0.58355605
v -0.5463531 0.71709793 0.58480137
v -0.54597723 0.71945607 0.58493727
v -0.54620671 0.72206509 0.58393216
v -0.54696834 0.72464579 0.5819329
v -0.54818832 0.72692996 0.57919585
v -0.54981148 0.72870123 0.57604914
v -0.55175393 0.72980982 0.572838
v -0.55376458 0.73015046 0.5697897
v -0.55551606 0.72967171 0.56704545
v -0.55684661 0.72842699 0.5648154
v -0.55773562 0.72656899 0.56336826
v -0.558146 0.72429341 0.56291294
v -0.55802464 0.72180765 0.56352609
v -0.56549567 0.71135813 0.55423247
v -0.56454402 0.70959925 0.5563628
v -0.56330329 0.70821291 0.55902433
v -0.56183499 0.70731937 0.56193125
v -0.56023007 0.70698827 0.56473565
v -0.55871993 0.70726448 0.56715524
v -0.55755996 0.70815902 0.56895571
v -0.55684208 0.70959717 0.56994307
v -0.5566008 0.71143353 0.57000929
v -0.55682838 0.7134726 0.56915396
v -0.55748641 0.71550273 0.56750047
v -0.55851209 0.71731853 0.56525433
v -0.55982041 0.71874499 0.56267541
v -0.56130242 0.7196418 0.56000018
v -0.56282728 0.71992284 0.55744916
v -0.56420862 0.71955931 0.55520361
v -0.56528306 0.71858882 0.55347275
v -0.56597566 0.71712094 0.55243319
v -0.56624847 0.71530789 0.5522018
v -0.56608283 0.71332371 0.55281311
v -0.57093095 0.70474231 0.5467441
v -0.57019132 0.70343667 0.54836797
v -0.56925892 0.70241951 0.55033087
v -0.56821042 0.70178353 0.55243396
v -0.56715136 0.70159179 0.55446326
v -0.5661965 0.70186919 0.55620831
v -0.56545341 0.70259761 0.55748158
v -0.56500124 0.70371264 0.55815547
v -0.56487655 0.70510166 0.55814403
v -0.56508302 0.70662689 0.55745923
v -0.56560021 0.70813423 0.55618727
v -0.56637483 0.70947474 0.55448454
v -0.56733781 0.71051567 0.55253475
v -0.56839168 0.71115249 0.55052673
v -0.56942796 0.71132099 0.54863548
v -0.57034355 0.71100664 0.54702591
v -0.57105213 0.7102434 0.54582941
v -0.57148408 0.70910984 0.54515641
v -0.57160753 0.70772111 0.54507577
v -0.57141625 0.70621693 0.54561662
v -0.57412546 0.69988858 0.54225742
v -0.5736069 0.69902086 0.54335206
v -0.57297945 0.69835811 0.54466259
v -0.5723052 0.69796609 0.54606252
v -0.57165396 0.69788461 0.5474081
v -0.57108771 0.69811958 0.54855489
v -0.5706579 0.69864779 0.54937648
v -0.57040572 0.69942116 0.54978358
v -0.57036024 0.70036506 0.54973805
v -0.57052671 0.70138871 0.54925614
v -0.57088875 0.70239025 0.54839581
v -0.57140743 0.70326888 0.54724794
v -0.57202589 0.70393568 0.54593259
v -0.57268226 0.70432359 0.5445773
v -0.57331961 0.70439499 0.54330468
v -0.57388049 0.7041465 0.5422337
v -0.57431197 0.70360511 0.54146432
v -0.57457226 0.70282727 0.5410636
v -0.57463192 0.70188778 0.54106479
v -0.57447975 0.70087623 0.54147386
v -0.5756579 0.69742429 0.54065901
v -0.57538533 0.69698619 0.54120957
v -0.57505291 0.696648 0.54185354
v -0.57469087 0.69644475 0.54253298
v -0.57434213 0.696397 0.54317259
v -0.57403624 0.69651049 0.54371339
v -0.57381069 0.69677484 0.54409283
v -0.57368183 0.69716411 0.54427504
v -0.57366305 0.69763964 0.54423916
v -0.57375341 0.69815349 0.54399079
v -0.57394307 0.69865441 0.54355824
v -0.57421094 0.69909244 0.54298961
v -0.57453662 0.69942611 0.54234224
v -0.5748856 0.69962215 0.54167926
v -0.57522773 0.6996634 0.5410645
v -0.57552719 0.69954639 0.54055517
v -0.57575881 0.69928228 0.54019135
v -0.5758953 0.69889712 0.54001295
v -0.57592523 0.69842886 0.54003369
v -0.57584488 0.69792169 0.54025381
v -0.57527005 0.69741421 0.54150247
v 0.17127998 0.68640309 0.87346845
v 0.17102682 0.68715739 0.87334579
v 0.16909685 0.68594145 0.87477141
v 0.17138794 0.68567806 0.87369328
v 0.17133694 0.68505251 0.87399482
v 0.17113106 0.68458902 0.87433672
v 0.17079348 0.68433618 0.87467885
v 0.17036205 0.68432277 0.87498331
v 0.16988395 0.68455243 0.87521952
v 0.16940952 0.68500292 0.87536829
v 0.16898569 0.68562889 0.8754208
v 0.1686515 0.68636614 0.87537896
v 0.16843497 0.68713867 0.87525099
v 0.16835239 0.68786853 0.87505054
v 0.16840818 0.68848389 0.87479364
v 0.16859605 0.68892544 0.87449926
v 0.16889989 0.68915313 0.87418937
v 0.16929471 0.68914818 0.87388974
v 0.16974742 0.68891394 0.87362927
v 0.17021711 0.68847376 0.87343639
v 0.17065882 0.68786954 0.87333607
v 0.1765438 0.69005447 0.87067949
v 0.17604112 0.69156324 0.87045234
v 0.17674459 0.68860566 0.87111395
v 0.1766173 0.68735677 0.87170469
v 0.17617528 0.68643337 0.8723793
v 0.17546901 0.68593138 0.87305712
v 0.17457877 0.68590682 0.87366396
v 0.17360173 0.68636685 0.87414056
v 0.17263938 0.68726772 0.87444847
v 0.17178557 0.6885184 0.87457162
v 0.17111747 0.68999099 0.87451142
v 0.17068992 0.69153523 0.87428212
v 0.17053464 0.69299536 0.87390667
v 0.17066024 0.69422638 0.87341356
v 0.17105414 0.6951102 0.8728376
v 0.17168468 0.69556558 0.87222141
v 0.17250032 0.69555491 0.8716166
v 0.17343218 0.69508385 0.87108135
v 0.17439571 0.69420105 0.8706761
v 0.17529699 0.69298994 0.87045437
v 0.18497909 0.69663918 0.86651712
v 0.1842242 0.69891232 0.8662157
v 0.18525041 0.69446182 0.86713951
v 0.1850045 0.69259083 0.86800402
v 0.18427205 0.6912142 0.86900079
v 0.18314038 0.69047343 0.87000846
v 0.18174018 0.69044935 0.87091708
v 0.18022376 0.69114989 0.87164193
v 0.17874585 0.6925081 0.87212914
v 0.17744687 0.69438868 0.8723542
v 0.17643946 0.69660061 0.87231606
v 0.17580334 0.69891971 0.87203025
v 0.17558273 0.70111149 0.87152338
v 0.17578785 0.70295673 0.87083119
v 0.17640863 0.70428168 0.86999607
v 0.17740888 0.70496755 0.86907446
v 0.17869287 0.70494574 0.8681485
v 0.18015116 0.70422583 0.86731046
v 0.18167071 0.70289516 0.86665236
v 0.18307828 0.70106595 0.86626684
v 0.19660343 0.70570099 0.86115419
v 0.19559423 0.7087928 0.86080628
v 0.19691175 0.70275461 0.86195623
v 0.19649377 0.7002511 0.86309677
v 0.19540701 0.69843804 0.86441803
v 0.19377374 0.69748246 0.86575955
v 0.19179236 0.69748938 0.86697393
v 0.18967914 0.69846236 0.86795747
v 0.18764188 0.70030582 0.8686459
v 0.18585018 0.70282656 0.86901462
v 0.18450413 0.70581907 0.86903816
v 0.18367373 0.70895391 0.8687402
v 0.1834128 0.71191966 0.86814445
v 0.18374548 0.71442371 0.86728352
v 0.18464209 0.71621835 0.86620688
v 0.18605069 0.71713322 0.86498212
v 0.18786357 0.71708852 0.86371171
v 0.18992964 0.71609556 0.86252284
v 0.19205403 0.71425259 0.86155813
v 0.19401486 0.71173751 0.86095261
v 0.21185731 0.71676361 0.85548824
v 0.21061271 0.72077953 0.8551889
v 0.2121323 0.71297198 0.85641038
v 0.21139758 0.70976209 0.85779631
v 0.20977926 0.70749682 0.85935068
v 0.20738056 0.70632821 0.86079734
v 0.2046065 0.70639908 0.86213755
v 0.2018093 0.70770674 0.86336618
v 0.19916939 0.71011239 0.86427384
v 0.19689494 0.71338367 0.86480438
v 0.19514048 0.71719515 0.86495423
v 0.1940864 0.72121024 0.86469996
v 0.19376261 0.7250148 0.86406689
v 0.19425438 0.72824329 0.86306697
v 0.19547048 0.7305535 0.86176252
v 0.19744451 0.73173153 0.86030727
v 0.20007807 0.73167097 0.85899305
v 0.20301958 0.73036599 0.85768914
v 0.20591817 0.72793668 0.85642099
v 0.20853857 0.72462612 0.85552609
v 0.23098288 0.72964263 0.84905809
v 0.22974526 0.73481363 0.84889394
v 0.23091754 0.72473132 0.85013717
v 0.22944578 0.72054016 0.85172659
v 0.22697329 0.71769893 0.8534547
v 0.22383619 0.71631962 0.8554722
v 0.2202453 0.7165125 0.85719198
v 0.2166077 0.71823805 0.85858488
v 0.21327808 0.7213099 0.85970181
v 0.21049949 0.7254588 0.86044699
v 0.20841334 0.73028683 0.86078506
v 0.20721459 0.73534411 0.86068326
v 0.20696204 0.74015325 0.86027818
v 0.20821155 0.74432313 0.85967981
v 0.21032536 0.74731165 0.85850131
v 0.21311666 0.74879247 0.85668081
v 0.21645721 0.74868929 0.85466092
v 0.22020047 0.74702382 0.852683
v 0.22399336 0.74395042 0.85095471
v 0.22733545 0.73974478 0.84961247
v 0.25363963 0.74364197 0.83893734
v 0.25255969 0.74952298 0.83850759
v 0.25318574 0.73802459 0.84064644
v 0.25096443 0.73312616 0.84294641
v 0.24747861 0.72952413 0.84578174
v 0.2431066 0.7276417 0.84859746
v 0.23841714 0.7278167 0.85078072
v 0.2339569 0.7299273 0.85271829
v 0.23002402 0.73374486 0.85423022
v 0.22685369 0.7388972 0.8552472
v 0.22465609 0.74492657 0.85582035
v 0.22391237 0.75120425 0.85577082
v 0.22452823 0.75695127 0.85487818
v 0.2262239 0.76161032 0.85322725
v 0.22906544 0.76480197 0.85116279
v 0.2326558 0.76619094 0.84849697
v 0.23693762 0.76574397 0.84568852
v 0.24162107 0.76357662 0.84307652
v 0.24614009 0.75992924 0.84081888
v 0.24995881 0.75511628 0.83921313
v 0.27877208 0.75961488 0.82318615
v 0.27851647 0.76697719 0.82207208
v 0.27698326 0.75222343 0.82607698
v 0.2734189 0.7457925 0.82958883
v 0.2689985 0.74141943 0.83367854
v 0.26394993 0.73937755 0.83755266
v 0.2587473 0.73969769 0.84096467
v 0.25380837 0.74224793 0.84363931
v 0.249494 0.74670076 0.84537822
v 0.24617873 0.75257355 0.84621536
v 0.24411004 0.75922387 0.84619981
v 0.2434882 0.76597297 0.84548527
v 0.24413074 0.77211922 0.84384244
v 0.24604629 0.77721542 0.84140378
v 0.24925655 0.78095132 0.83838182
v 0.25377723 0.78307068 0.83514946
v 0.25910258 0.7833451 0.83151561
v 0.26507008 0.78182673 0.82797932
v 0.2709662 0.77851069 0.82485204
v 0.27575236 0.77345651 0.82267046
v 0.30800825 0.78236973 0.79910892
v 0.30709841 0.79326134 0.79679125
v 0.30569779 0.77181595 0.80392295
v 0.30032929 0.76303422 0.81024295
v 0.29338926 0.75665092 0.81677633
v 0.28642591 0.75296175 0.82258182
v 0.28005722 0.75233066 0.82721841
v 0.27444693 0.75460499 0.83037
v 0.26986792 0.75933045 0.83219838
v 0.26653745 0.76588469 0.83283448
v 0.26470637 0.77357721 0.83249676
v 0.26440522 0.78170287 0.83112001
v 0.26579776 0.78972309 0.82884115
v 0.26876607 0.79693943 0.82533043
v 0.27339547 0.80286777 0.82080864
v 0.27929586 0.80712688 0.81544721
v 0.28596577 0.80953484 0.80970931
v 0.29278773 0.80993378 0.80418628
v 0.2990055 0.80778002 0.79945749
v 0.30393165 0.80226767 0.7969436
v 0.32951572 0.81051772 0.77498751
v 0.3293696 0.8242532 0.77052003
v 0.32856276 0.7943533 0.78129833
v 0.32498127 0.78134566 0.78781122
v 0.31889867 0.77311873 0.79476976
v 0.31172078 0.76879054 0.80171245
v 0.30460342 0.76797008 0.80730414
v 0.29859033 0.77048826 0.81125748
v 0.29395031 0.77592945 0.81334257
v 0.2908208 0.78380835 0.8137272
v 0.28916704 0.79343247 0.81262439
v 0.28904077 0.80385816 0.81022787
v 0.29078999 0.81407713 0.8060801
v 0.29507073 0.82301425 0.79985249
v 0.30167067 0.83000344 0.7920441
v 0.30921259 0.8347612 0.78381067
v 0.31620821 0.8375864 0.7768833
v 0.32180202 0.83855432 0.77207493
v 0.3256731 0.83717012 0.7693035
v 0.32818794 0.83278113 0.76879316
v 0.34500491 0.83020752 0.75665676
v 0.34381371 0.8414905 0.75373333
v 0.34541305 0.81422978 0.76218152
v 0.34333068 0.79802948 0.76915323
v 0.33882924 0.78751856 0.77638316
v 0.33274713 0.78301417 0.78235983
v 0.32642921 0.78329438 0.78712606
v 0.32046538 0.78761434 0.79007154
v 0.315649 0.79562461 0.79144918
v 0.31243258 0.8062793 0.79062372
v 0.31194835 0.81784552 0.78774303
v 0.31394746 0.82852125 0.7821691
v 0.31828936 0.83729803 0.77577436
v 0.32320427 0.84392845 0.7694782
v 0.32788184 0.84866821 0.76404851
v 0.33194661 0.85169309 0.75982075
v 0.33523726 0.85319227 0.75649678
v 0.33808901 0.85341221 0.75421643
v 0.3404023 0.85197818 0.75288772
v 0.34223401 0.84826833 0.75260812
v 0.35983049 0.83544194 0.74326479
v 0.35604754 0.84703528 0.74212318
v 0.36330512 0.81993496 0.74637889
v 0.36304831 0.80495309 0.75234586
v 0.3585439 0.79549264 0.75940251
v 0.35205248 0.79243826 0.76559829
v 0.34484556 0.79499471 0.76962965
v 0.33850553 0.8027144 0.77181673
v 0.33377048 0.81398338 0.77174025
v 0.33136829 0.82574927 0.76938611
v 0.33144572 0.83591079 0.76596653
v 0.3328796 0.84393888 0.76167905
v 0.33529332 0.85016578 0.75764501
v 0.33799108 0.85491782 0.75387823
v 0.3406552 0.85839879 0.750714
v 0.34297132 0.86055707 0.74785596
v 0.34515747 0.86140209 0.74545979
v 0.34740737 0.86089497 0.74363726
v 0.34986788 0.85876852 0.7424159
v 0.35274806 0.85443413 0.74195182
v 0.40413683 0.81348103 0.71533566
v 0.3946363 0.82894605 0.7178902
v 0.40456289 0.8014723 0.71981382
v 0.39797237 0.79363352 0.728486
v 0.38875269 0.78939497 0.73839408
v 0.37851366 0.78960776 0.7462421
v 0.36823067 0.79543381 0.75169974
v 0.35865783 0.80749207 0.75512141
v 0.3507204 0.82237803 0.75578051
v 0.34602481 0.83508259 0.7545675
v 0.34429052 0.84451383 0.75243461
v 0.34437698 0.85149455 0.7499299
v 0.34541961 0.8567624 0.747132
v 0.34705212 0.86048978 0.74415582
v 0.34925496 0.86305421 0.7415204
v 0.3521147 0.86422687 0.73912483
v 0.35588166 0.86357587 0.73672598
v 0.36068064 0.86037164 0.73373532
v 0.36819487 0.85401278 0.73022216
v 0.38010448 0.84350115 0.72477418
v 0.44667333 0.78970897 0.68470424
v 0.44800955 0.79678177 0.68089652
v 0.44239071 0.78389465 0.69123053
v 0.43504962 0.77975595 0.69972479
v 0.42619967 0.77797496 0.70946252
v 0.4159502 0.77908068 0.71845763
v 0.40625742 0.78326159 0.72574323
v 0.3961887 0.79282063 0.73085653
v 0.38218095 0.81083589 0.73547703
v 0.3676083 0.83055251 0.73952889
v 0.36008101 0.84375691 0.74014473
v 0.35802951 0.85184401 0.73902714
v 0.35883179 0.85658621 0.73680502
v 0.3617981 0.85861122 0.73352348
v 0.36807146 0.85777384 0.7291966
v 0.38028144 0.85285776 0.72182428
v 0.40227857 0.84215849 0.70756369
v 0.4266805 0.82722526 0.69150614
v 0.44008263 0.81460779 0.68296837
v 0.44625464 0.80493205 0.68018931
v 0.47574961 0.77522081 0.65919315
v 0.47696411 0.78130948 0.65579021
v 0.47232893 0.77013838 0.66459411
v 0.46725577 0.76665777 0.67180007
v 0.46019822 0.76517927 0.67981565
v 0.4527871 0.76626747 0.68788206
v 0.44485068 0.77002173 0.69427716
v 0.43830084 0.77654808 0.698758
v 0.43306866 0.78479301 0.70063775
v 0.42987161 0.79425352 0.70079904
v 0.42713657 0.8044154 0.69919002
v 0.42667061 0.81313955 0.69666373
v 0.43041229 0.81727898 0.69157409
v 0.43840783 0.81710875 0.68436342
v 0.44750976 0.81438553 0.67654538
v 0.45567974 0.81058776 0.66949594
v 0.46280667 0.80626779 0.66366922
v 0.46881687 0.80091482 0.65902632
v 0.47341057 0.79465651 0.65590375
v 0.47603523 0.78793162 0.65466129
v 0.49890634 0.76112639 0.63722127
v 0.5005542 0.76614558 0.63381993
v 0.49564206 0.75702244 0.64223498
v 0.4916473 0.75430649 0.64852976
v 0.48695087 0.75325119 0.65512645
v 0.48149058 0.75391787 0.66063815
v 0.47702372 0.75682473 0.66534417
v 0.47277569 0.76169157 0.66821861
v 0.46965858 0.76812046 0.66936051
v 0.467978 0.77529919 0.66895389
v 0.46775203 0.78210401 0.66686856
v 0.46926322 0.78767401 0.6634314
v 0.47228798 0.79141509 0.65891724
v 0.47635757 0.79309427 0.65366631
v 0.48131761 0.7928524 0.6483075
v 0.48643565 0.79089331 0.64323592
v 0.49114865 0.78734678 0.63845044
v 0.49560278 0.78274387 0.63492411
v 0.49855497 0.77733409 0.63264137
v 0.50037986 0.77167171 0.63225293
v 0.51839393 0.74787914 0.616912
v 0.51999115 0.75182247 0.61344224
v 0.5158075 0.7447201 0.6217156
v 0.51248252 0.74260723 0.62725597
v 0.50826805 0.74170553 0.63260734
v 0.50430113 0.74242281 0.63768011
v 0.50097096 0.74475169 0.64167988
v 0.49789047 0.74842435 0.64376401
v 0.49590286 0.75328207 0.64426022
v 0.49530798 0.75877749 0.64330071
v 0.49584692 0.76412963 0.64097422
v 0.49745702 0.76864862 0.63754421
v 0.50018185 0.77183455 0.63338482
v 0.50383508 0.77343487 0.62887746
v 0.50760293 0.77335584 0.62414896
v 0.51135093 0.77173954 0.61961317
v 0.51514232 0.76891511 0.61585944
v 0.51795005 0.76513856 0.61301547
v 0.51968455 0.76078754 0.6114903
v 0.52038347 0.75622743 0.61158281
v 0.53318882 0.73646825 0.59848761
v 0.53466028 0.73972338 0.59526932
v 0.53102785 0.73384296 0.60272836
v 0.5284065 0.73211377 0.6076045
v 0.52566885 0.73151618 0.61267906
v 0.52297294 0.73209464 0.61713862
v 0.52047658 0.73381316 0.62033855
v 0.51842719 0.73660135 0.62203228
v 0.51730716 0.74026006 0.62222975
v 0.51723057 0.74437099 0.62101513
v 0.51805526 0.74841946 0.61857062
v 0.51964926 0.75190264 0.61518317
v 0.52193433 0.75445032 0.61121809
v 0.52478271 0.75587397 0.60708016
v 0.52771574 0.75610309 0.60301882
v 0.5302965 0.75513964 0.59918457
v 0.53243887 0.75312703 0.59592872
v 0.5341016 0.75031632 0.59373712
v 0.53511881 0.74695855 0.59285265
v 0.53532183 0.74332374 0.59335327
v 0.54581821 0.72607827 0.58200627
v 0.54709929 0.72877907 0.57902395
v 0.54403227 0.7239145 0.58586698
v 0.54177379 0.7224735 0.59011817
v 0.53900069 0.72190809 0.59418249
v 0.53639274 0.72238206 0.59779328
v 0.53463029 0.72390276 0.60068607
v 0.53346651 0.72625869 0.6022917
v 0.53293931 0.72921085 0.60244697
v 0.53311651 0.73246854 0.60128182
v 0.53397071 0.73568427 0.5990231
v 0.53539598 0.7385084 0.59596014
v 0.53729933 0.74064999 0.59240424
v 0.53968888 0.74192214 0.58869779
v 0.5421499 0.74219089 0.58500319
v 0.54421627 0.74146992 0.58168363
v 0.54595047 0.739901 0.57908356
v 0.5471937 0.73761481 0.57734984
v 0.54781383 0.73482006 0.57666218
v 0.54778182 0.73178315 0.57720536
v 0.55622375 0.71711176 0.56778615
v 0.55736196 0.71933633 0.56518352
v 0.55473613 0.71535337 0.57112062
v 0.55300521 0.71422058 0.57481926
v 0.55109328 0.71379655 0.57837683
v 0.54911583 0.71413373 0.58137071
v 0.54741495 0.71525543 0.58355629
v 0.54635328 0.71709775 0.58480173
v 0.54597723 0.71945613 0.58493727
v 0.54620671 0.72206515 0.58393216
v 0.54696828 0.72464591 0.58193296
v 0.54818826 0.72693008 0.57919591
v 0.54981148 0.72870123 0.57604914
v 0.55175387 0.72980982 0.572838
v 0.5537644 0.73015052 0.56978982
v 0.555516 0.72967177 0.56704556
v 0.55684655 0.72842699 0.56481558
v 0.5577355 0.72656893 0.56336849
v 0.55814588 0.72429335 0.56291317
v 0.55802452 0.72180765 0.56352615
v 0.5645439 0.70959925 0.55636292
v 0.56549555 0.71135813 0.55423259
v 0.56330323 0.70821291 0.55902445
v 0.56183493 0.70731931 0.56193137
v 0.56023007 0.70698821 0.56473571
v 0.55871993 0.7072646 0.56715554
v 0.5575599 0.70815897 0.56895589
v 0.55684202 0.70959717 0.56994319
v 0.5566008 0.71143358 0.57000935
v 0.55682838 0.71347266 0.56915396
v 0.55748641 0.71550273 0.56750047
v 0.55851215 0.71731865 0.56525427
v 0.55982041 0.71874505 0.56267541
v 0.56130242 0.7196418 0.56000018
v 0.56282728 0.71992284 0.55744916
v 0.5642085 0.71955937 0.55520379
v 0.565283 0.71858888 0.55347287
v 0.56597566 0.717121 0.55243343
v 0.56624835 0.71530783 0.55220192
v 0.56608289 0.71332413 0.55281317
v 0.57019126 0.70343673 0.54836803
v 0.57093083 0.70474225 0.54674422
v 0.56925892 0.70241946 0.55033105
v 0.56821036 0.70178347 0.55243408
v 0.5671513 0.70159179 0.55446332
v 0.5661965 0.70186924 0.55620837
v 0.56545192 0.70259738 0.55748426
v 0.56500124 0.70371258 0.55815559
v 0.56487655 0.70510166 0.55814403
v 0.56508302 0.70662689 0.55745923
v 0.56560027 0.70813417 0.55618727
v 0.56637483 0.70947474 0.55448454
v 0.56733775 0.71051585 0.55253475
v 0.56839168 0.71115249 0.55052673
v 0.56942796 0.71132099 0.54863554
v 0.57034343 0.71100693 0.54702591
v 0.57105201 0.71024346 0.54582953
v 0.57148402 0.7091099 0.54515653
v 0.57160741 0.70772117 0.54507601
v 0.57141625 0.70621699 0.54561668
v 0.57360684 0.69902074 0.543352
v 0.57412546 0.69988858 0.54225754
v 0.57297945 0.69835811 0.54466265
v 0.5723052 0.69796603 0.54606264
v 0.57165396 0.69788456 0.54740816
v 0.57108771 0.69811946 0.54855501
v 0.5706579 0.69864761 0.5493766
v 0.57040572 0.6994211 0.5497837
v 0.57036018 0.70036482 0.54973816
v 0.57052671 0.70138853 0.5492562
v 0.57088881 0.70239013 0.54839581
v 0.57140743 0.70326888 0.54724794
v 0.57202589 0.70393562 0.54593265
v 0.57268226 0.70432359 0.54457736
v 0.57331961 0.70439517 0.54330456
v 0.57388043 0.7041465 0.542234
v 0.57431191 0.70360517 0.54146444
v 0.57457196 0.70282715 0.5410636
v 0.57463192 0.7018879 0.54106479
v 0.57447969 0.70087611 0.54147398
v 0.57538533 0.69698613 0.54120963
v 0.5756579 0.69742447 0.54065907
v 0.57505291 0.69664794 0.5418536
v 0.57469087 0.69644463 0.5425331
v 0.57434213 0.69639694 0.54317265
v 0.57403618 0.69651037 0.54371351
v 0.57381063 0.69677472 0.54409289
v 0.57368177 0.69716399 0.54427516
v 0.57366305 0.69763952 0.54423922
v 0.57375329 0.69815331 0.54399097
v 0.57394307 0.69865435 0.54355824
v 0.57421094 0.69909244 0.54298961
v 0.57453656 0.69942611 0.5423423
v 0.57488554 0.69962215 0.54167932
v 0.57522755 0.69966322 0.54106444
v 0.57552719 0.69954639 0.54055523
v 0.57575881 0.69928234 0.54019135
v 0.5758953 0.6988973 0.54001301
v 0.57592517 0.69842881 0.54003375
v 0.57584488 0.69792145 0.54025387
v 0.57526999 0.69741416 0.54150223
f 3 2 1
f 4 3 1
f 5 4 1
f 6 5 1
f 7 6 1
f 8 7 1
f 9 8 1
f 10 9 1
f 11 10 1
f 12 11 1
f 13 12 1
f 14 13 1
f 15 14 1
f 16 15 1
f 17 16 1
f 18 17 1
f 19 18 1
f 20 19 1
f 21 20 1
f 2 21 1
f 3 23 22 2
f 4 24 23 3
f 5 25 24 4
f 6 26 25 5
f 7 27 26 6
f 8 28 27 7
f 9 29 28 8
f 10 30 29 9
f 11 31 30 10
f 12 32 31 11
f 13 33 32 12
f 14 34 33 13
f 15 35 34 14
f 16 36 35 15
f 17 37 36 16
f 18 38 37 17
f 19 39 38 18
f 20 40 39 19
f 21 41 40 20
f 2 22 41 21
f 23 43 42 22
f 24 44 43 23
f 25 45 44 24
f 26 46 45 25
f 27 47 46 26
f 28 48 47 27
f 29 49 48 28
f 30 50 49 29
f 31 51 50 30
f 32 52 51 31
f 33 53 52 32
f 34 54 53 33
f 35 55 54 34
f 36 56 55 35
f 37 57 56 36
f 38 58 57 37
f 39 59 58 38
f 40 60 59 39
f 41 61 60 40
f 22 42 61 41
f 43 63 62 42
f 44 64 63 43
f 45 65 64 44
f 46 66 65 45
f 47 67 66 46
f 48 68 67 47
f 49 69 68 48
f 50 70 69 49
f 51 71 70 50
f 52 72 71 51
f 53 73 72 52
f 54 74 73 53
f 55 75 74 54
f 56 76 75 55
f 57 77 76 56
f 58 78 77 57
f 59 79 78 58
f 60 80 79 59
f 61 81 80 60
f 42 62 81 61
f 63 83 82 62
f 64 84 83 63
f 65 85 84 64
f 66 86 85 65
f 67 87 86 66
f 68 88 87 67
f 69 89 88 68
f 70 90 89 69
f 71 91 90 70
f 72 92 91 71
f 73 93 92 72
f 74 94 93 73
f 75 95 94 74
f 76 96 95 75
f 77 97 96 76
f 78 98 97 77
f 79 99 98 78
f 80 100 99 79
f 81 101 100 80
f 62 82 101 81
f 83 103 102 82
f 84 104 103 83
f 85 105 104 84
f 86 106 105 85
f 87 107 106 86
f 88 108 107 87
f 89 109 108 88
f 90 110 109 89
f 91 111 110 90
f 92 112 111 91
f 93 113 112 92
f 94 114 113 93
f 95 115 114 94
f 96 116 115 95
f 97 117 116 96
f 98 118 117 97
f 99 119 118 98
f 100 120 119 99
f 101 121 120 100
f 82 102 121 101
f 103 123 122 102
f 104 124 123 103
f 105 125 124 104
f 106 126 125 105
f 107 127 126 106
f 108 128 127 107
f 109 129 128 108
f 110 130 129 109
f 111 131 130 110
f 112 132 131 111
f 113 133 132 112
f 114 134 133 113
f 115 135 134 114
f 116 136 135 115
f 117 137 136 116
f 118 138 137 117
f 119 139 138 118
f 120 140 139 119
f 121 141 140 120
f 102 122 141 121
f 123 143 142 122
f 124 144 143 123
f 125 145 144 124
f 126 146 145 125
f 127 147 146 126
f 128 148 147 127
f 129 149 148 128
f 130 150 149 129
f 131 151 150 130
f 132 152 151 131
f 133 153 152 132
f 134 154 153 133
f 135 155 154 134
f 136 156 155 135
f 137 157 156 136
f 138 158 157 137
f 139 159 158 138
f 140 160 159 139
f 141 161 160 140
f 122 142 161 141
f 143 163 162 142
f 144 164 163 143
f 145 165 164 144
f 146 166 165 145
f 147 167 166 146
f 148 168 167 147
f 149 169 168 148
f 150 170 169 149
f 151 171 170 150
f 152 172 171 151
f 153 173 172 152
f 154 174 173 153
f 155 175 174 154
f 156 176 175 155
f 157 177 176 156
f 158 178 177 157
f 159 179 178 158
f 160 180 179 159
f 161 181 180 160
f 142 162 181 161
f 163 183 182 162
f 164 184 183 163
f 165 185 184 164
f 166 186 185 165
f 167 187 186 166
f 168 188 187 167
f 169 189 188 168
f 170 190 189 169
f 171 191 190 170
f 172 192 191 171
f 173 193 192 172
f 174 194 193 173
f 175 195 194 174
f 176 196 195 175
f 177 197 196 176
f 178 198 197 177
f 179 199 198 178
f 180 200 199 179
f 181 201 200 180
f 162 182 201 181
f 183 203 202 182
f 184 204 203 183
f 185 205 204 184
f 186 206 205 185
f 187 207 206 186
f 188 208 207 187
f 189 209 208 188
f 190 210 209 189
f 191 211 210 190
f 192 212 211 191
f 193 213 212 192
f 194 214 213 193
f 195 215 214 194
f 196 216 215 195
f 197 217 216 196
f 198 218 217 197
f 199 219 218 198
f 200 220 219 199
f 201 221 220 200
f 182 202 221 201
f 203 223 222 202
f 204 224 223 203
f 205 225 224 204
f 206 226 225 205
f 207 227 226 206
f 208 228 227 207
f 209 229 228 208
f 210 230 229 209
f 211 231 230 210
f 212 232 231 211
f 213 233 232 212
f 214 234 233 213
f 215 235 234 214
f 216 236 235 215
f 217 237 236 216
f 218 238 237 217
f 219 239 238 218
f 220 240 239 219
f 221 241 240 220
f 202 222 241 221
f 223 243 242 222
f 224 244 243 223
f 225 245 244 224
f 226 246 245 225
f 227 247 246 226
f 228 248 247 227
f 229 249 248 228
f 230 250 249 229
f 231 251 250 230
f 232 252 251 231
f 233 253 252 232
f 234 254 253 233
f 235 255 254 234
f 236 256 255 235
f 237 257 256 236
f 238 258 257 237
f 239 259 258 238
f 240 260 259 239
f 241 261 260 240
f 222 242 261 241
f 243 263 262 242
f 244 264 263 243
f 245 265 264 244
f 246 266 265 245
f 247 267 266 246
f 248 268 267 247
f 249 269 268 248
f 250 270 269 249
f 251 271 270 250
f 252 272 271 251
f 253 273 272 252
f 254 274 273 253
f 255 275 274 254
f 256 276 275 255
f 257 277 276 256
f 258 278 277 257
f 259 279 278 258
f 260 280 279 259
f 261 281 280 260
f 242 262 281 261
f 263 283 282 262
f 264 284 283 263
f 265 285 284 264
f 266 286 285 265
f 267 287 286 266
f 268 288 287 267
f 269 289 288 268
f 270 290 289 269
f 271 291 290 270
f 272 292 291 271
f 273 293 292 272
f 274 294 293 273
f 275 295 294 274
f 276 296 295 275
f 277 297 296 276
f 278 298 297 277
f 279 299 298 278
f 280 300 299 279
f 281 301 300 280
f 262 282 301 281
f 283 303 302 282
f 284 304 303 283
f 285 305 304 284
f 286 306 305 285
f 287 307 306 286
f 288 308 307 287
f 289 309 308 288
f 290 310 309 289
f 291 311 310 290
f 292 312 311 291
f 293 313 312 292
f 294 314 313 293
f 295 315 314 294
f 296 316 315 295
f 297 317 316 296
f 298 318 317 297
f 299 319 318 298
f 300 320 319 299
f 301 321 320 300
f 282 302 321 301
f 303 323 322 302
f 304 324 323 303
f 305 325 324 304
f 306 326 325 305
f 307 327 326 306
f 308 328 327 307
f 309 329 328 308
f 310 330 329 309
f 311 331 330 310
f 312 332 331 311
f 313 333 332 312
f 314 334 333 313
f 315 335 334 314
f 316 336 335 315
f 317 337 336 316
f 318 338 337 317
f 319 339 338 318
f 320 340 339 319
f 321 341 340 320
f 302 322 341 321
f 323 343 342 322
f 324 344 343 323
f 325 345 344 324
f 326 346 345 325
f 327 347 346 326
f 328 348 347 327
f 329 349 348 328
f 330 350 349 329
f 331 351 350 330
f 332 352 351 331
f 333 353 352 332
f 334 354 353 333
f 335 355 354 334
f 336 356 355 335
f 337 357 356 336
f 338 358 357 337
f 339 359 358 338
f 340 360 359 339
f 341 361 360 340
f 322 342 361 341
f 343 363 362 342
f 344 364 363 343
f 345 365 364 344
f 346 366 365 345
f 347 367 366 346
f 348 368 367 347
f 349 369 368 348
f 350 370 369 349
f 351 371 370 350
f 352 372 371 351
f 353 373 372 352
f 354 374 373 353
f 355 375 374 354
f 356 376 375 355
f 357 377 376 356
f 358 378 377 357
f 359 379 378 358
f 360 380 379 359
f 361 381 380 360
f 342 362 381 361
f 363 383 382 362
f 364 384 383 363
f 365 385 384 364
f 366 386 385 365
f 367 387 386 366
f 368 388 387 367
f 369 389 388 368
f 370 390 389 369
f 371 391 390 370
f 372 392 391 371
f 373 393 392 372
f 374 394 393 373
f 375 395 394 374
f 376 396 395 375
f 377 397 396 376
f 378 398 397 377
f 379 399 398 378
f 380 400 399 379
f 381 401 400 380
f 362 382 401 381
f 383 403 402 382
f 384 404 403 383
f 385 405 404 384
f 386 406 405 385
f 387 407 406 386
f 388 408 407 387
f 389 409 408 388
f 390 410 409 389
f 391 411 410 390
f 392 412 411 391
f 393 413 412 392
f 394 414 413 393
f 395 415 414 394
f 396 416 415 395
f 397 417 416 396
f 398 418 417 397
f 399 419 418 398
f 400 420 419 399
f 401 421 420 400
f 382 402 421 401
f 403 423 422 402
f 404 424 423 403
f 405 425 424 404
f 406 426 425 405
f 407 427 426 406
f 408 428 427 407
f 409 429 428 408
f 410 430 429 409
f 411 431 430 410
f 412 432 431 411
f 413 433 432 412
f 414 434 433 413
f 415 435 434 414
f 416 436 435 415
f 417 437 436 416
f 418 438 437 417
f 419 439 438 418
f 420 440 439 419
f 421 441 440 420
f 402 422 441 421
f 423 443 442 422
f 424 444 443 423
f 425 445 444 424
f 426 446 445 425
f 427 447 446 426
f 428 448 447 427
f 429 449 448 428
f 430 450 449 429
f 431 451 450 430
f 432 452 451 431
f 433 453 452 432
f 434 454 453 433
f 435 455 454 434
f 436 456 455 435
f 437 457 456 436
f 438 458 457 437
f 439 459 458 438
f 440 460 459 439
f 441 461 460 440
f 422 442 461 441
f 443 463 462 442
f 444 464 463 443
f 445 465 464 444
f 446 466 465 445
f 447 467 466 446
f 448 468 467 447
f 449 469 468 448
f 450 470 469 449
f 451 471 470 450
f 452 472 471 451
f 453 473 472 452
f 454 474 473 453
f 455 475 474 454
f 456 476 475 455
f 457 477 476 456
f 458 478 477 457
f 459 479 478 458
f 460 480 479 459
f 461 481 480 460
f 442 462 481 461
f 463 482 462
f 464 482 463
f 465 482 464
f 466 482 465
f 467 482 466
f 468 482 467
f 469 482 468
f 470 482 469
f 471 482 470
f 472 482 471
f 473 482 472
f 474 482 473
f 475 482 474
f 476 482 475
f 477 482 476
f 478 482 477
f 479 482 478
f 480 482 479
f 481 482 480
f 462 482 481
f 485 484 483
f 485 483 486
f 485 486 487
f 485 487 488
f 485 488 489
f 485 489 490
f 485 490 491
f 485 491 492
f 485 492 493
f 485 493 494
f 485 494 495
f 485 495 496
f 485 496 497
f 485 497 498
f 485 498 499
f 485 499 500
f 485 500 501
f 485 501 502
f 485 502 503
f 485 503 484
f 483 484 505 504
f 486 483 504 506
f 487 486 506 507
f 488 487 507 508
f 489 488 508 509
f 490 489 509 510
f 491 490 510 511
f 492 491 511 512
f 493 492 512 513
f 494 493 513 514
f 495 494 514 515
f 496 495 515 516
f 497 496 516 517
f 498 497 517 518
f 499 498 518 519
f 500 499 519 520
f 501 500 520 521
f 502 501 521 522
f 503 502 522 523
f 484 503 523 505
f 504 505 525 524
f 506 504 524 526
f 507 506 526 527
f 508 507 527 528
f 509 508 528 529
f 510 509 529 530
f 511 510 530 531
f 512 511 531 532
f 513 512 532 533
f 514 513 533 534
f 515 514 534 535
f 516 515 535 536
f 517 516 536 537
f 518 517 537 538
f 519 518 538 539
f 520 519 539 540
f 521 520 540 541
f 522 521 541 542
f 523 522 542 543
f 505 523 543 525
f 524 525 545 544
f 526 524 544 546
f 527 526 546 547
f 528 527 547 548
f 529 528 548 549
f 530 529 549 550
f 531 530 550 551
f 532 531 551 552
f 533 532 552 553
f 534 533 553 554
f 535 534 554 555
f 536 535 555 556
f 537 536 556 557
f 538 537 557 558
f 539 538 558 559
f 540 539 559 560
f 541 540 560 561
f 542 541 561 562
f 543 542 562 563
f 525 543 563 545
f 544 545 565 564
f 546 544 564 566
f 547 546 566 567
f 548 547 567 568
f 549 548 568 569
f 550 549 569 570
f 551 550 570 571
f 552 551 571 572
f 553 552 572 573
f 554 553 573 574
f 555 554 574 575
f 556 555 575 576
f 557 556 576 577
f 558 557 577 578
f 559 558 578 579
f 560 559 579 580
f 561 560 580 581
f 562 561 581 582
f 563 562 582 583
f 545 563 583 565
f 564 565 585 584
f 566 564 584 586
f 567 566 586 587
f 568 567 587 588
f 569 568 588 589
f 570 569 589 590
f 571 570 590 591
f 572 571 591 592
f 573 572 592 593
f 574 573 593 594
f 575 574 594 595
f 576 575 595 596
f 577 576 596 597
f 578 577 597 598
f 579 578 598 599
f 580 579 599 600
f 581 580 600 601
f 582 581 601 602
f 583 582 602 603
f 565 583 603 585
f 584 585 605 604
f 586 584 604 606
f 587 586 606 607
f 588 587 607 608
f 589 588 608 609
f 590 589 609 610
f 591 590 610 611
f 592 591 611 612
f 593 592 612 613
f 594 593 613 614
f 595 594 614 615
f 596 595 615 616
f 597 596 616 617
f 598 597 617 618
f 599 598 618 619
f 600 599 619 620
f 601 600 620 621
f 602 601 621 622
f 603 602 622 623
f 585 603 623 605
f 604 605 625 624
f 606 604 624 626
f 607 606 626 627
f 608 607 627 628
f 609 608 628 629
f 610 609 629 630
f 611 610 630 631
f 612 611 631 632
f 613 612 632 633
f 614 613 633 634
f 615 614 634 635
f 616 615 635 636
f 617 616 636 637
f 618 617 637 638
f 619 618 638 639
f 620 619 639 640
f 621 620 640 641
f 622 621 641 642
f 623 622 642 643
f 605 623 643 625
f 624 625 645 644
f 626 624 644 646
f 627 626 646 647
f 628 627 647 648
f 629 628 648 649
f 630 629 649 650
f 631 630 650 651
f 632 631 651 652
f 633 632 652 653
f 634 633 653 654
f 635 634 654 655
f 636 635 655 656
f 637 636 656 657
f 638 637 657 658
f 639 638 658 659
f 640 639 659 660
f 641 640 660 661
f 642 641 661 662
f 643 642 662 663
f 625 643 663 645
f 644 645 665 664
f 646 644 664 666
f 647 646 666 667
f 648 647 667 668
f 649 648 668 669
f 650 649 669 670
f 651 650 670 671
f 652 651 671 672
f 653 652 672 673
f 654 653 673 674
f 655 654 674 675
f 656 655 675 676
f 657 656 676 677
f 658 657 677 678
f 659 658 678 679
f 660 659 679 680
f 661 660 680 681
f 662 661 681 682
f 663 662 682 683
f 645 663 683 665
f 664 665 685 684
f 666 664 684 686
f 667 666 686 687
f 668 667 687 688
f 669 668 688 689
f 670 669 689 690
f 671 670 690 691
f 672 671 691 692
f 673 672 692 693
f 674 673 693 694
f 675 674 694 695
f 676 675 695 696
f 677 676 696 697
f 678 677 697 698
f 679 678 698 699
f 680 679 699 700
f 681 680 700 701
f 682 681 701 702
f 683 682 702 703
f 665 683 703 685
f 684 685 705 704
f 686 684 704 706
f 687 686 706 707
f 688 687 707 708
f 689 688 708 709
f 690 689 709 710
f 691 690 710 711
f 692 691 711 712
f 693 692 712 713
f 694 693 713 714
f 695 694 714 715
f 696 695 715 716
f 697 696 716 717
f 698 697 717 718
f 699 698 718 719
f 700 699 719 720
f 701 700 720 721
f 702 701 721 722
f 703 702 722 723
f 685 703 723 705
f 704 705 725 724
f 706 704 724 726
f 707 706 726 727
f 708 707 727 728
f 709 708 728 729
f 710 709 729 730
f 711 710 730 731
f 712 711 731 732
f 713 712 732 733
f 714 713 733 734
f 715 714 734 735
f 716 715 735 736
f 717 716 736 737
f 718 717 737 738
f 719 718 738 739
f 720 719 739 740
f 721 720 740 741
f 722 721 741 742
f 723 722 742 743
f 705 723 743 725
f 724 725 745 744
f 726 724 744 746
f 727 726 746 747
f 728 727 747 748
f 729 728 748 749
f 730 729 749 750
f 731 730 750 751
f 732 731 751 752
f 733 732 752 753
f 734 733 753 754
f 735 734 754 755
f 736 735 755 756
f 737 736 756 757
f 738 737 757 758
f 739 738 758 759
f 740 739 759 760
f 741 740 760 761
f 742 741 761 762
f 743 742 762 763
f 725 743 763 745
f 744 745 765 764
f 746 744 764 766
f 747 746 766 767
f 748 747 767 768
f 749 748 768 769
f 750 749 769 770
f 751 750 770 771
f 752 751 771 772
f 753 752 772 773
f 754 753 773 774
f 755 754 774 775
f 756 755 775 776
f 757 756 776 777
f 758 757 777 778
f 759 758 778 779
f 760 759 779 780
f 761 760 780 781
f 762 761 781 782
f 763 762 782 783
f 745 763 783 765
f 764 765 785 784
f 766 764 784 786
f 767 766 786 787
f 768 767 787 788
f 769 768 788 789
f 770 769 789 790
f 771 770 790 791
f 772 771 791 792
f 773 772 792 793
f 774 773 793 794
f 775 774 794 795
f 776 775 795 796
f 777 776 796 797
f 778 777 797 798
f 779 778 798 799
f 780 779 799 800
f 781 780 800 801
f 782 781 801 802
f 783 782 802 803
f 765 783 803 785
f 784 785 805 804
f 786 784 804 806
f 787 786 806 807
f 788 787 807 808
f 789 788 808 809
f 790 789 809 810
f 791 790 810 811
f 792 791 811 812
f 793 792 812 813
f 794 793 813 814
f 795 794 814 815
f 796 795 815 816
f 797 796 816 817
f 798 797 817 818
f 799 798 818 819
f 800 799 819 820
f 801 800 820 821
f 802 801 821 822
f 803 802 822 823
f 785 803 823 805
f 804 805 825 824
f 806 804 824 826
f 807 806 826 827
f 808 807 827 828
f 809 808 828 829
f 810 809 829 830
f 811 810 830 831
f 812 811 831 832
f 813 812 832 833
f 814 813 833 834
f 815 814 834 835
f 816 815 835 836
f 817 816 836 837
f 818 817 837 838
f 819 818 838 839
f 820 819 839 840
f 821 820 840 841
f 822 821 841 842
f 823 822 842 843
f 805 823 843 825
f 824 825 845 844
f 826 824 844 846
f 827 826 846 847
f 828 827 847 848
f 829 828 848 849
f 830 829 849 850
f 831 830 850 851
f 832 831 851 852
f 833 832 852 853
f 834 833 853 854
f 835 834 854 855
f 836 835 855 856
f 837 836 856 857
f 838 837 857 858
f 839 838 858 859
f 840 839 859 860
f 841 840 860 861
f 842 841 861 862
f 843 842 862 863
f 825 843 863 845
f 844 845 865 864
f 846 844 864 866
f 847 846 866 867
f 848 847 867 868
f 849 848 868 869
f 850 849 869 870
f 851 850 870 871
f 852 851 871 872
f 853 852 872 873
f 854 853 873 874
f 855 854 874 875
f 856 855 875 876
f 857 856 876 877
f 858 857 877 878
f 859 858 878 879
f 860 859 879 880
f 861 860 880 881
f 862 861 881 882
f 863 862 882 883
f 845 863 883 865
f 864 865 885 884
f 866 864 884 886
f 867 866 886 887
f 868 867 887 888
f 869 868 888 889
f 870 869 889 890
f 871 870 890 891
f 872 871 891 892
f 873 872 892 893
f 874 873 893 894
f 875 874 894 895
f 876 875 895 896
f 877 876 896 897
f 878 877 897 898
f 879 878 898 899
f 880 879 899 900
f 881 880 900 901
f 882 881 901 902
f 883 882 902 903
f 865 883 903 885
f 884 885 905 904
f 886 884 904 906
f 887 886 906 907
f 888 887 907 908
f 889 888 908 909
f 890 889 909 910
f 891 890 910 911
f 892 891 911 912
f 893 892 912 913
f 894 893 913 914
f 895 894 914 915
f 896 895 915 916
f 897 896 916 917
f 898 897 917 918
f 899 898 918 919
f 900 899 919 920
f 901 900 920 921
f 902 901 921 922
f 903 902 922 923
f 885 903 923 905
f 904 905 925 924
f 906 904 924 926
f 907 906 926 927
f 908 907 927 928
f 909 908 928 929
f 910 909 929 930
f 911 910 930 931
f 912 911 931 932
f 913 912 932 933
f 914 913 933 934
f 915 914 934 935
f 916 915 935 936
f 917 916 936 937
f 918 917 937 938
f 919 918 938 939
f 920 919 939 940
f 921 920 940 941
f 922 921 941 942
f 923 922 942 943
f 905 923 943 925
f 924 925 945 944
f 926 924 944 946
f 927 926 946 947
f 928 927 947 948
f 929 928 948 949
f 930 929 949 950
f 931 930 950 951
f 932 931 951 952
f 933 932 952 953
f 934 933 953 954
f 935 934 954 955
f 936 935 955 956
f 937 936 956 957
f 938 937 957 958
f 939 938 958 959
f 940 939 959 960
f 941 940 960 961
f 942 941 961 962
f 943 942 962 963
f 925 943 963 945
f 945 964 944
f 944 964 946
f 946 964 947
f 947 964 948
f 948 964 949
f 949 964 950
f 950 964 951
f 951 964 952
f 952 964 953
f 953 964 954
f 954 964 955
f 955 964 956
f 956 964 957
f 957 964 958
f 958 964 959
f 959 964 960
f 960 964 961
f 961 964 962
f 962 964 963
f 963 964 945

 