# File exported by ZBrush version 2026
# www.zbrush.com
g ZBrushPolyMesh3D
#Vertex Count 1458
#Face Count 1458
#Auto scale x=1.000000 y=1.000000 z=1.000000
#Auto offset x=0.000000 y=0.000000 z=0.000000
v 0 -1.08181595 0.21715727
v 0 -1.18253386 0.17893466
v -0.0865788 -1.17900526 0.17386964
v -0.08159229 -1.07871317 0.21185895
v -0.07881613 -0.97881507 0.26264247
v 0 -0.98225492 0.26784181
v -0.07690474 -0.88743782 0.32048833
v 0 -0.89129608 0.32561218
v -0.07541891 -0.80713695 0.38468572
v 0 -0.81286108 0.38741919
v -0.07477068 -0.74280512 0.45037248
v 0 -0.74595743 0.45455253
v -0.07532695 -0.70341724 0.50521755
v 0 -0.70818787 0.50685715
v -0.07713677 -0.68029969 0.55677175
v 0 -0.68432664 0.558407
v -0.08009573 -0.67785424 0.60604125
v 0 -0.67840772 0.60821509
v -0.08386905 -0.69977003 0.64920872
v 0 -0.7034105 0.65312528
v -0.08804681 -0.74413591 0.67645591
v 0 -0.75135529 0.68029958
v -0.09283441 -0.80398947 0.68908476
v 0 -0.81035774 0.69245111
v -0.09877459 -0.88118773 0.68970435
v 0 -0.88794612 0.69324719
v -0.10570412 -0.98245066 0.67537885
v 0 -0.98998075 0.67930156
v -0.11381182 -1.0937035 0.64394319
v 0 -1.1029905 0.64802843
v -0.12484114 -1.1990925 0.59937965
v 0 -1.21214675 0.6027053
v -0.13711126 -1.2951672 0.54404133
v 0 -1.30984008 0.54802596
v -0.14789 -1.37706267 0.48042267
v 0 -1.39256894 0.48637676
v -0.1536239 -1.43944346 0.41244733
v 0 -1.45521569 0.4191429
v -0.15424853 -1.47798454 0.35137856
v 0 -1.4921329 0.36114102
v -0.15120433 -1.49827623 0.29450678
v 0 -1.5129137 0.3026885
v -0.1454326 -1.50053775 0.24330903
v 0 -1.51486301 0.24777825
v -0.13750293 -1.48497593 0.19953295
v 0 -1.49474942 0.20103041
v -0.1280504 -1.45204889 0.16775922
v 0 -1.45864713 0.17111219
v -0.11863085 -1.40578627 0.14908587
v 0 -1.41188681 0.1538973
v -0.10766501 -1.34603416 0.14312478
v 0 -1.36024463 0.14781706
v -0.09574019 -1.2729119 0.15042354
v 0 -1.2803359 0.15461988
v -0.19196859 -1.25421571 0.13752536
v -0.17349399 -1.16692674 0.1608131
v -0.21143667 -1.32246089 0.12938118
v -0.30768659 -1.2865169 0.10567811
v -0.28331333 -1.2247039 0.11540529
v -0.23095345 -1.37882721 0.13386206
v -0.33362972 -1.33874845 0.10779588
v -0.42352238 -1.28979289 0.07321164
v -0.3936007 -1.24248731 0.07319711
v -0.24936188 -1.42286932 0.15148888
v -0.36009615 -1.37925899 0.12389852
v -0.45577359 -1.32660007 0.08695767
v -0.5378018 -1.26864802 0.04579008
v -0.50132948 -1.23536598 0.03335288
v -0.38500005 -1.40619909 0.1553622
v -0.48718237 -1.34759366 0.11881066
v -0.57342577 -1.28516292 0.07554328
v -0.64532244 -1.22046816 0.02683173
v -0.60653966 -1.20810592 -0.00158855
v -0.51303082 -1.35164594 0.16253621
v -0.60333192 -1.28407001 0.11755092
v -0.67742198 -1.21482908 0.06766948
v -0.73736649 -1.14462518 0.01470639
v -0.70295989 -1.15403783 -0.02410126
v -0.62544912 -1.26657187 0.16847071
v -0.70226627 -1.19398295 0.11774981
v -0.76485711 -1.12011408 0.06337683
v -0.81462031 -1.04992651 0.00383399
v -0.78460741 -1.07778084 -0.04223012
v -0.71907466 -1.15774321 0.17820049
v -0.78441482 -1.08057904 0.12303903
v -0.83727204 -1.00713002 0.06068105
v -0.87896007 -0.93978011 -0.01019617
v -0.85380518 -0.98554271 -0.06211423
v -0.79324394 -1.02447009 0.19450347
v -0.85027891 -0.94758051 0.12917466
v -0.89476186 -0.87695348 0.05234362
v -0.92628222 -0.81263977 -0.0367253
v -0.9082902 -0.87843167 -0.09102711
v -0.84784299 -0.8740158 0.20392434
v -0.89743024 -0.7998296 0.12015564
v -0.93121975 -0.73302495 0.02153462
v -0.95012658 -0.67272895 -0.08441522
v -0.94388514 -0.75440037 -0.1342428
v -0.88528513 -0.71815842 0.17885321
v -0.92221379 -0.64958339 0.07288055
v -0.94220215 -0.58693927 -0.0381486
v -0.95023876 -0.52920234 -0.14764291
v -0.95770651 -0.61830592 -0.19033557
v -0.90166127 -0.56521177 0.11278171
v -0.92104315 -0.50073564 0.0001063
v -0.92855268 -0.44098979 -0.11131262
v -0.92931544 -0.38859543 -0.22339208
v -0.95125913 -0.47810193 -0.25563475
v -0.89078903 -0.42464253 0.0298484
v -0.89847356 -0.36520463 -0.08323884
v -0.89903003 -0.31313675 -0.19874157
v -0.89413678 -0.27028584 -0.3176192
v -0.92485702 -0.34493458 -0.33842834
v -0.86493796 -0.30681911 -0.06305414
v -0.86536222 -0.25588002 -0.18064294
v -0.86006623 -0.21405005 -0.30158039
v -0.8496375 -0.1818321 -0.42481032
v -0.8840515 -0.23610073 -0.4387505
v -0.82932615 -0.21373663 -0.16742174
v -0.82372564 -0.17328958 -0.28930801
v -0.81318199 -0.14195199 -0.41314545
v -0.79568278 -0.12124575 -0.53723037
v -0.83233064 -0.1598591 -0.54880935
v -0.78571027 -0.1464785 -0.2806558
v -0.77513176 -0.11561115 -0.40379524
v -0.75779551 -0.09567116 -0.5269261
v -0.73184949 -0.08496313 -0.64719414
v -0.76924824 -0.10990845 -0.65903258
v -0.73472881 -0.10452472 -0.39733603
v -0.71730828 -0.08633857 -0.51862007
v -0.69118189 -0.07684693 -0.63605243
v -0.65712451 -0.07305342 -0.74726176
v -0.69551509 -0.08128024 -0.76214546
v -0.67739129 -0.09396482 -0.51297974
v -0.65252202 -0.08624906 -0.62636977
v -0.62025165 -0.08338243 -0.73376017
v -0.5786221 -0.08341514 -0.83438938
v -0.61275833 -0.07333292 -0.85181379
v -0.61987412 -0.11214231 -0.61934334
v -0.5896101 -0.10931318 -0.72302156
v -0.55091339 -0.10960322 -0.82025939
v -0.50565439 -0.11501371 -0.90971452
v -0.52769666 -0.08734792 -0.92538881
v -0.56462639 -0.14704199 -0.71513348
v -0.52999121 -0.1476279 -0.80981314
v -0.48770374 -0.15161466 -0.89742821
v -0.43565973 -0.15649634 -0.97544211
v -0.4505195 -0.12080307 -0.98817384
v -0.51402264 -0.19592131 -0.80265992
v -0.47456869 -0.19754359 -0.88894277
v -0.42512932 -0.20127782 -0.96719473
v -0.36741837 -0.20589292 -1.03590619
v -0.3753575 -0.16163326 -1.04313647
v -0.46311846 -0.25632226 -0.88233977
v -0.41582921 -0.26051619 -0.96080255
v -0.35993674 -0.26631519 -1.03058576
v -0.29832342 -0.27350428 -1.09056735
v -0.3040975 -0.21042294 -1.09534156
v -0.40760234 -0.34144777 -0.95517003
v -0.35201534 -0.3517619 -1.02653646
v -0.29076215 -0.36404404 -1.0874089
v -0.22426706 -0.37524023 -1.13623726
v -0.23075857 -0.28148287 -1.1397978
v -0.35200893 -0.44808766 -1.01558101
v -0.29177242 -0.46849322 -1.07392382
v -0.22503514 -0.48554149 -1.12178528
v -0.15339599 -0.49977999 -1.15639114
v -0.15227435 -0.38433283 -1.17248022
v -0.3064267 -0.57044512 -1.04888057
v -0.23969066 -0.59300583 -1.09297192
v -0.16617585 -0.61435377 -1.12452018
v -0.08476871 -0.62883269 -1.14436876
v -0.07736665 -0.51113057 -1.17695486
v -0.25437054 -0.68203032 -1.07081019
v -0.17760168 -0.70199149 -1.09900689
v -0.09073545 -0.71518135 -1.11773324
v 0 -0.71878278 -1.12628209
v 0 -0.63485342 -1.15269649
v -0.18509045 -0.75957447 -1.08915412
v -0.09545595 -0.77307403 -1.10581517
v 0 -0.77376228 -1.11391007
v -0.10094706 -0.821231 -1.10694587
v 0 -0.82299703 -1.11255991
v -0.10625545 -0.86215174 -1.12254607
v 0 -0.86381894 -1.12493836
v -0.11047864 -0.88833093 -1.1543951
v 0 -0.8933981 -1.15642106
v -0.11298288 -0.89222586 -1.19523978
v 0 -0.89561426 -1.1989746
v -0.11385341 -0.87622398 -1.23666226
v 0 -0.87745016 -1.2417953
v -0.11355299 -0.84303349 -1.27815771
v 0 -0.84244906 -1.28387427
v -0.11254785 -0.79055237 -1.3224672
v 0 -0.79231804 -1.32574796
v -0.11213141 -0.71021229 -1.37334001
v 0 -0.70964855 -1.37895989
v -0.11450159 -0.60551601 -1.42007315
v 0 -0.6038317 -1.42719578
v -0.12038798 -0.49376353 -1.44639444
v 0 -0.49204582 -1.45533633
v -0.12269672 -0.38487881 -1.44553554
v 0 -0.38447055 -1.45437908
v -0.12014689 -0.29060506 -1.42104733
v 0 -0.29204639 -1.43052208
v -0.1143031 -0.22329999 -1.38766145
v 0 -0.22491753 -1.39684569
v -0.1076796 -0.1763204 -1.3534789
v 0 -0.17930148 -1.36292266
v -0.10107226 -0.14306679 -1.3201065
v 0 -0.14558723 -1.32885932
v -0.09525007 -0.12261816 -1.28930461
v 0 -0.12300004 -1.29620039
v -0.08968859 -0.11367994 -1.25723147
v 0 -0.11301615 -1.26177334
v -0.08463343 -0.12204012 -1.22696304
v 0 -0.12584205 -1.23335659
v -0.08259115 -0.15121869 -1.21178102
v 0 -0.15415361 -1.21855378
v -0.08156263 -0.18724884 -1.204499
v 0 -0.190411 -1.21218144
v -0.08108539 -0.22686412 -1.20144677
v 0 -0.23459069 -1.20982372
v -0.07994394 -0.29039129 -1.19933605
v 0 -0.29112306 -1.20790779
v -0.07694847 -0.39094364 -1.19416332
v 0 -0.39255347 -1.20247519
v 0 -0.51596587 -1.18511879
v -0.15748214 -0.28775993 -1.1767472
v -0.15999421 -0.22347995 -1.17959857
v -0.23470009 -0.21721985 -1.14340853
v -0.16124892 -0.1822616 -1.18342733
v -0.2375466 -0.17566274 -1.14831781
v -0.30922812 -0.16825276 -1.10116112
v -0.24244239 -0.1386861 -1.15764999
v -0.31732061 -0.13184374 -1.1119132
v -0.38694459 -0.12573897 -1.05542469
v -0.32870227 -0.10251236 -1.12801682
v -0.40207657 -0.09764515 -1.07222318
v -0.46904563 -0.09387359 -1.00474715
v -0.42638343 -0.09233899 -1.09911513
v -0.49656817 -0.08739414 -1.02939844
v -0.55906975 -0.07919464 -0.94683831
v -0.52644074 -0.093137 -1.05603671
v -0.59223371 -0.08626906 -0.96937972
v -0.64879179 -0.08149167 -0.87021851
v -0.62605553 -0.10862305 -0.99191606
v -0.68456202 -0.10459115 -0.8881672
v -0.73249238 -0.10497254 -0.77663785
v -0.71982872 -0.13981296 -0.90519785
v -0.76818633 -0.14125707 -0.79088646
v -0.80545234 -0.14753085 -0.67155087
v -0.80295503 -0.18902738 -0.80446642
v -0.84003925 -0.19690157 -0.68389892
v -0.86649972 -0.21190753 -0.56130456
v -0.87316429 -0.26597976 -0.69673037
v -0.89886087 -0.28339797 -0.57582014
v -0.91564077 -0.3096002 -0.45613843
v -0.92322236 -0.37435442 -0.59403973
v -0.93869161 -0.40058204 -0.47839072
v -0.94717109 -0.43505775 -0.36542424
v -0.945656 -0.49464312 -0.50604069
v -0.95405411 -0.52829939 -0.3986887
v -0.9581815 -0.56967502 -0.29406508
v -0.94565671 -0.61612021 -0.43228876
v -0.9506635 -0.65523529 -0.33279922
v -0.95090478 -0.70180624 -0.23401345
v -0.93035835 -0.72730183 -0.36552801
v -0.9318695 -0.77121067 -0.27228087
v -0.92546492 -0.82205104 -0.17965394
v -0.90459859 -0.82258075 -0.30232858
v -0.89879173 -0.87150979 -0.21684278
v -0.88210505 -0.92627477 -0.13585923
v -0.86540478 -0.90708994 -0.24717491
v -0.84873044 -0.95959138 -0.17305474
v -0.82160556 -1.01629293 -0.10444925
v -0.80956834 -0.9778791 -0.20067012
v -0.78390377 -1.0321908 -0.13685388
v -0.74853146 -1.09071576 -0.07822557
v -0.74119192 -1.03103315 -0.15720999
v -0.70659834 -1.08680725 -0.10221736
v -0.66223394 -1.14612913 -0.05021376
v -0.66460531 -1.06426417 -0.10843166
v -0.62098348 -1.12039434 -0.05840545
v -0.56650656 -1.17870664 -0.01220107
v -0.58507722 -1.08434641 -0.05234904
v -0.53165715 -1.13876915 -0.00704852
v -0.46802866 -1.19199609 0.03509062
v -0.50195908 -1.09177506 0.00854298
v -0.43929886 -1.14107382 0.04917902
v -0.36622941 -1.1860392 0.08517845
v -0.41050523 -1.07437086 0.07637129
v -0.33846178 -1.11240112 0.11140593
v -0.25848457 -1.14421534 0.13977046
v -0.31404051 -1.02686882 0.15090957
v -0.2385603 -1.05368173 0.17795985
v -0.16126935 -1.06946265 0.19855213
v -0.22914272 -0.95515281 0.22873283
v -0.15581016 -0.96968042 0.24954788
v -0.22491903 -0.86200976 0.28796568
v -0.15240491 -0.87779647 0.30798745
v -0.22132681 -0.78032738 0.35432073
v -0.14973613 -0.79696399 0.37311393
v -0.22064197 -0.71706682 0.41978678
v -0.14882302 -0.73342305 0.43845263
v -0.22282032 -0.67747438 0.47445312
v -0.14986577 -0.6938917 0.49332562
v -0.22759683 -0.65340703 0.52443695
v -0.15304575 -0.67017018 0.54462653
v -0.23624773 -0.64689934 0.57436907
v -0.15864667 -0.66614711 0.59434062
v -0.24875208 -0.66391694 0.61838364
v -0.16687491 -0.68561941 0.63863647
v -0.2632603 -0.70437151 0.64920866
v -0.17619237 -0.72930556 0.6671223
v -0.27650395 -0.76254057 0.66391164
v -0.18490578 -0.78839701 0.68040221
v -0.28888788 -0.83235442 0.66557848
v -0.19430106 -0.86337447 0.68117755
v -0.30683434 -0.92222094 0.65255343
v -0.20799766 -0.96091938 0.66674262
v -0.3355475 -1.02225375 0.61994791
v -0.22731764 -1.06868207 0.6342538
v -0.36667904 -1.11755311 0.57192438
v -0.2481493 -1.16896808 0.5889014
v -0.39691838 -1.20107257 0.51402086
v -0.27018034 -1.26015067 0.53193432
v -0.42238631 -1.2747339 0.4464789
v -0.29015195 -1.33798754 0.46687331
v -0.43520715 -1.33702242 0.3733477
v -0.30131989 -1.39936828 0.39718142
v -0.43309509 -1.3787899 0.30799385
v -0.30146735 -1.43861222 0.33528134
v -0.4228383 -1.40419364 0.250797
v -0.29474172 -1.46103262 0.27835041
v -0.40662106 -1.41400063 0.19929255
v -0.28309243 -1.46630096 0.22665479
v -0.26759558 -1.45325624 0.18321563
v -0.53290969 -1.33773493 0.21396713
v -0.54584974 -1.30880713 0.27199307
v -0.64010906 -1.2341963 0.22828887
v -0.5486117 -1.26174891 0.34079909
v -0.64398604 -1.18356883 0.29982444
v -0.72472703 -1.10443556 0.25090795
v -0.63306695 -1.11581969 0.37924733
v -0.71512895 -1.03544414 0.3308013
v -0.78636598 -0.95413786 0.27294927
v -0.69109028 -0.95631003 0.40640774
v -0.76570838 -0.87496042 0.34540259
v -0.8318904 -0.79387092 0.27072444
v -0.73859804 -0.79071688 0.40226182
v -0.80959248 -0.70950305 0.32160496
v -0.86489999 -0.63387024 0.22311855
v -0.78070932 -0.62875872 0.35817548
v -0.83653694 -0.55431711 0.25531014
v -0.87213724 -0.48740053 0.1434483
v -0.80584722 -0.49261781 0.27469611
v -0.84018057 -0.42830285 0.16298712
v -0.85745292 -0.36594712 0.05028867
v -0.80704027 -0.38392102 0.17447261
v -0.82243454 -0.32245051 0.06349522
v -0.82941877 -0.26347822 -0.04918333
v -0.78549003 -0.29272171 0.07034139
v -0.79221129 -0.23444405 -0.04104785
v -0.79160785 -0.18616956 -0.15905471
v -0.75191986 -0.21961939 -0.03866296
v -0.75127041 -0.17309382 -0.15562997
v -0.7455284 -0.13468921 -0.27591458
v -0.7104175 -0.17673611 -0.15797334
v -0.70521813 -0.13978846 -0.27599772
v -0.69466322 -0.11119487 -0.39495679
v -0.6695165 -0.1610887 -0.28126871
v -0.65953487 -0.13473449 -0.39657697
v -0.64323025 -0.11930251 -0.51015859
v -0.6304956 -0.17185117 -0.4014258
v -0.61480051 -0.15741503 -0.51037699
v -0.59258955 -0.14986808 -0.61517661
v -0.59081292 -0.20734623 -0.5132808
v -0.57045173 -0.19988966 -0.61392593
v -0.54519772 -0.19635748 -0.71051871
v -0.55268597 -0.2601546 -0.61510622
v -0.52958107 -0.25595676 -0.70857536
v -0.50050604 -0.25487801 -0.79775995
v -0.51634645 -0.33381786 -0.70837122
v -0.48867416 -0.33357492 -0.79440212
v -0.45344927 -0.33563128 -0.87695771
v -0.48284828 -0.42423787 -0.79279887
v -0.44870123 -0.42581462 -0.8721854
v -0.40518921 -0.43229225 -0.94795078
v -0.45372757 -0.52255696 -0.8658204
v -0.41413801 -0.53151577 -0.93408244
v -0.36564162 -0.54835343 -0.99539738
v -0.4296171 -0.6257047 -0.92687398
v -0.38207307 -0.64072775 -0.98487895
v -0.32294499 -0.66034293 -1.03339302
v -0.39891204 -0.7078942 -0.9851616
v -0.33832714 -0.72433114 -1.03128492
v -0.26630854 -0.74296981 -1.0647391
v -0.35419985 -0.77283263 -1.03852868
v -0.27959632 -0.7918424 -1.0706532
v -0.19455598 -0.80902749 -1.09289944
v -0.29586279 -0.83290404 -1.08941483
v -0.20510251 -0.85093396 -1.11061966
v -0.31244811 -0.86068314 -1.1210314
v -0.21564118 -0.87824016 -1.1429634
v -0.32695314 -0.86565774 -1.16278672
v -0.22318391 -0.88226175 -1.18554318
v -0.33807072 -0.85039413 -1.20622992
v -0.22722789 -0.86746215 -1.22884881
v -0.34532621 -0.81961202 -1.24847507
v -0.22937826 -0.83556908 -1.27067852
v -0.3499259 -0.77250051 -1.29114007
v -0.22990991 -0.78645885 -1.31319689
v -0.35223954 -0.69849199 -1.33869898
v -0.22915847 -0.7087717 -1.36055707
v -0.35198214 -0.60529476 -1.37803864
v -0.23025964 -0.60906231 -1.40262186
v -0.35333532 -0.49744024 -1.3979491
v -0.23732449 -0.4972592 -1.42628169
v -0.35444298 -0.38649156 -1.39398241
v -0.24049879 -0.38622763 -1.42456889
v -0.34600725 -0.28829386 -1.36658942
v -0.23502101 -0.28891712 -1.3991363
v -0.33253601 -0.21806848 -1.3321563
v -0.22499561 -0.22088684 -1.36611461
v -0.31676811 -0.16904412 -1.29829323
v -0.21342952 -0.17284677 -1.3325113
v -0.29950827 -0.13321851 -1.26528751
v -0.20140007 -0.13861213 -1.29991591
v -0.28267446 -0.11093435 -1.23468637
v -0.19024704 -0.11672793 -1.26940679
v -0.26612678 -0.10299331 -1.20354187
v -0.17908503 -0.10816194 -1.23736393
v -0.25028231 -0.10931184 -1.17322158
v -0.1686045 -0.11610768 -1.20666027
v -0.16384276 -0.14592307 -1.19145786
v -0.34913158 -0.09624239 -1.15745723
v -0.37002986 -0.104534 -1.18748998
v -0.45219647 -0.09975542 -1.12843048
v -0.39175313 -0.1280362 -1.21820247
v -0.47862118 -0.12179856 -1.15836632
v -0.55764341 -0.11485181 -1.08329772
v -0.50587302 -0.15704412 -1.18990492
v -0.58912277 -0.14963688 -1.11032915
v -0.66054332 -0.14273937 -1.01293969
v -0.62075859 -0.19690513 -1.13566279
v -0.69425541 -0.18988025 -1.03305542
v -0.75448912 -0.18693482 -0.92140966
v -0.72946101 -0.25761696 -1.05341601
v -0.79019707 -0.2534258 -0.93733561
v -0.83743953 -0.25641381 -0.81777548
v -0.81778049 -0.34060284 -0.95018094
v -0.86429113 -0.34440365 -0.83087432
v -0.89892596 -0.35545098 -0.71185964
v -0.87448197 -0.43949008 -0.84489584
v -0.90827953 -0.45108345 -0.72984474
v -0.93134307 -0.4690825 -0.61667513
v -0.89913183 -0.54436701 -0.74595642
v -0.92235297 -0.56138849 -0.63846892
v -0.93681001 -0.58507531 -0.53397452
v -0.89969945 -0.64196825 -0.6535784
v -0.91476607 -0.6632542 -0.55516088
v -0.92430973 -0.691262 -0.45945596
v -0.88508772 -0.72208732 -0.56718552
v -0.89577311 -0.74750834 -0.4773384
v -0.90249234 -0.78096163 -0.38924774
v -0.86270695 -0.78856676 -0.48822832
v -0.86983686 -0.82023906 -0.40612119
v -0.8716399 -0.85993397 -0.32545912
v -0.83190876 -0.84507578 -0.41610482
v -0.83270627 -0.88300329 -0.34130254
v -0.82565015 -0.92789769 -0.26923078
v -0.7891069 -0.8894599 -0.34806057
v -0.78198146 -0.93211162 -0.28087654
v -0.76642334 -0.98011672 -0.21744632
v -0.73974174 -0.91697824 -0.27942028
v -0.72402244 -0.96217352 -0.21856714
v -0.69897526 -1.0113399 -0.16159421
v -0.6886329 -0.93255132 -0.20850662
v -0.66331589 -0.97988963 -0.1526971
v -0.62854999 -1.03062534 -0.10083182
v -0.63460946 -0.94112086 -0.13448126
v -0.59914517 -0.99008572 -0.08324426
v -0.5549286 -1.04086709 -0.03572284
v -0.57072657 -0.93688041 -0.0544326
v -0.52634155 -0.98487311 -0.00742529
v -0.47324508 -1.0311464 0.03648486
v -0.49829834 -0.91032302 0.03733387
v -0.44557407 -0.95282203 0.0804533
v -0.38378399 -0.99225956 0.11841465
v -0.42439252 -0.86743831 0.13483762
v -0.3645204 -0.90533149 0.17017234
v -0.29861202 -0.93475419 0.20160625
v -0.35557997 -0.81149166 0.23212888
v -0.29280728 -0.84001964 0.26217797
v -0.3530938 -0.72787344 0.29851338
v -0.28914299 -0.75710237 0.32943818
v -0.3559336 -0.66361838 0.36223107
v -0.28976976 -0.69370722 0.39457052
v -0.36264205 -0.62290865 0.41486522
v -0.29392728 -0.65387427 0.44852221
v -0.37282282 -0.59701412 0.46266743
v -0.30098974 -0.62914419 0.49742296
v -0.38852626 -0.5865761 0.50954896
v -0.31290599 -0.62035095 0.54634541
v -0.41011813 -0.59562689 0.55142593
v -0.33005076 -0.63365328 0.59001392
v -0.43447008 -0.62598019 0.58086299
v -0.34961038 -0.66988283 0.62113827
v -0.45843032 -0.67272603 0.59624958
v -0.36814284 -0.72377163 0.63665294
v -0.48047429 -0.72812503 0.59813612
v -0.38477757 -0.78725385 0.63917028
v -0.50424426 -0.79367005 0.58854168
v -0.40726447 -0.86383515 0.62758028
v -0.53533065 -0.87399059 0.56145221
v -0.43860241 -0.95292168 0.597678
v -0.57146507 -0.95764225 0.5163486
v -0.47485446 -1.04179883 0.55053168
v -0.60737425 -1.03918743 0.45501697
v -0.51020175 -1.1228882 0.49016013
v -0.53683704 -1.19704628 0.41791471
v -0.65923684 -0.87295943 0.46675106
v -0.6254757 -0.79098194 0.50979155
v -0.70767825 -0.70895755 0.44226822
v -0.59455072 -0.71744072 0.53417766
v -0.67766648 -0.63981175 0.46448731
v -0.75069022 -0.56375551 0.37829172
v -0.65118765 -0.58742106 0.472478
v -0.72261369 -0.51547819 0.38640776
v -0.77552396 -0.44728347 0.28433033
v -0.69108265 -0.47546717 0.38687175
v -0.74163347 -0.41115275 0.28709834
v -0.77104002 -0.35102951 0.17957215
v -0.70343148 -0.38809216 0.28091928
v -0.73183614 -0.33189323 0.1769074
v -0.74618917 -0.27698782 0.07074838
v -0.69140619 -0.32936051 0.16601628
v -0.70568239 -0.27698251 0.06391779
v -0.71032095 -0.22161322 -0.04290488
v -0.66918981 -0.29112008 0.05054371
v -0.67373842 -0.23934529 -0.05387094
v -0.67414492 -0.19615328 -0.16603952
v -0.64347952 -0.26885992 -0.06969357
v -0.64364081 -0.22778077 -0.17840966
v -0.63921141 -0.19507359 -0.28994959
v -0.61807489 -0.27123886 -0.19465746
v -0.61409866 -0.24157457 -0.3021368
v -0.60555809 -0.22062969 -0.40904405
v -0.59355294 -0.30081662 -0.31687173
v -0.58510106 -0.28105065 -0.41875758
v -0.57135224 -0.26785349 -0.51840806
v -0.5702694 -0.35647475 -0.43037077
v -0.55676436 -0.34433552 -0.52563273
v -0.53891509 -0.337172 -0.61855202
v -0.55093026 -0.43352973 -0.53528308
v -0.53288918 -0.42699593 -0.62419176
v -0.51044178 -0.42432785 -0.71030563
v -0.5382871 -0.5180363 -0.63106352
v -0.51490569 -0.51636934 -0.71309286
v -0.48699948 -0.51806622 -0.79199898
v -0.53232735 -0.60432732 -0.71838343
v -0.50314325 -0.60806423 -0.79291862
v -0.46917298 -0.61515128 -0.86305654
v -0.52789086 -0.67689621 -0.80001235
v -0.49169385 -0.68464922 -0.86784213
v -0.44937276 -0.69484299 -0.92987871
v -0.51669478 -0.73214763 -0.87800818
v -0.47124904 -0.74281877 -0.93916904
v -0.41756129 -0.75636786 -0.99333787
v -0.49796924 -0.77974152 -0.95550501
v -0.44068548 -0.79524087 -1.00990176
v -0.37395134 -0.81295085 -1.05574202
v -0.4682829 -0.82017564 -1.03701829
v -0.39682588 -0.83967769 -1.08514559
v -0.49658617 -0.82431066 -1.07309341
v -0.41877818 -0.84434258 -1.12403094
v -0.5218876 -0.80759376 -1.11279308
v -0.43733507 -0.8284558 -1.16572856
v -0.54332518 -0.77381664 -1.15212917
v -0.45220398 -0.79626196 -1.20809316
v -0.5617733 -0.72371798 -1.19122135
v -0.46344101 -0.74818843 -1.2504245
v -0.57752913 -0.65115046 -1.23236441
v -0.47113552 -0.67569929 -1.29584801
v -0.58756876 -0.56138712 -1.26530957
v -0.47456568 -0.58572053 -1.33398914
v -0.58855301 -0.46602529 -1.28130042
v -0.47375249 -0.48625084 -1.3537774
v -0.58094227 -0.36920809 -1.27689862
v -0.46998581 -0.38113549 -1.34864783
v -0.56114912 -0.27725932 -1.25395941
v -0.45589745 -0.28537318 -1.32124042
v -0.53269445 -0.20530575 -1.22156369
v -0.43525308 -0.21312798 -1.28520274
v -0.4143058 -0.16429947 -1.25146997
v -0.65359842 -0.26674732 -1.16195809
v -0.67811954 -0.35506519 -1.17988777
v -0.75673764 -0.34433233 -1.06813037
v -0.68770742 -0.44790279 -1.18487405
v -0.76719665 -0.43678095 -1.07517957
v -0.82829487 -0.43429893 -0.96069288
v -0.7599312 -0.53174936 -1.07287621
v -0.8196997 -0.52958232 -0.96472162
v -0.86539602 -0.53374058 -0.85506719
v -0.79708015 -0.61643594 -0.95814061
v -0.84193313 -0.61913502 -0.85658234
v -0.87604826 -0.62755364 -0.75447982
v -0.81151366 -0.68561404 -0.84847307
v -0.8454042 -0.69149953 -0.75361102
v -0.86931681 -0.7034716 -0.65969836
v -0.81055367 -0.73782259 -0.74608159
v -0.83483523 -0.74796271 -0.65872389
v -0.85151416 -0.76462674 -0.57242506
v -0.79537278 -0.77768069 -0.6524496
v -0.81274646 -0.79311412 -0.572007
v -0.82491642 -0.81512439 -0.49303594
v -0.77049237 -0.80543923 -0.56601244
v -0.78266358 -0.82564944 -0.4909853
v -0.78894949 -0.85380351 -0.41829863
v -0.74060708 -0.81786215 -0.48241028
v -0.74707198 -0.84376758 -0.41171869
v -0.74710321 -0.87716507 -0.34408667
v -0.71106874 -0.81993055 -0.39926233
v -0.71151667 -0.8512364 -0.33223488
v -0.70433551 -0.88918983 -0.2684856
v -0.68242311 -0.81643587 -0.3155874
v -0.67529737 -0.85335785 -0.25129917
v -0.65959483 -0.89529544 -0.19069239
v -0.64634335 -0.80283922 -0.22509169
v -0.63099694 -0.84439677 -0.16280055
v -0.60589522 -0.88944691 -0.10581603
v -0.60253328 -0.77554464 -0.12259253
v -0.57773834 -0.82019895 -0.06286693
v -0.54287928 -0.86581385 -0.00987292
v -0.55534189 -0.7385891 -0.0095616
v -0.52100086 -0.78278857 0.04663667
v -0.47664836 -0.82602024 0.09411868
v -0.51207917 -0.69635587 0.10279009
v -0.4670763 -0.73770636 0.15434317
v -0.41407185 -0.77667862 0.1968915
v -0.46834072 -0.65505147 0.21440635
v -0.4133467 -0.69342184 0.26066201
v -0.47670316 -0.58844596 0.27210599
v -0.41874396 -0.62799102 0.32182395
v -0.48922616 -0.54415899 0.3194296
v -0.42838764 -0.58571809 0.3723292
v -0.50590223 -0.51373654 0.36155149
v -0.4418165 -0.55802267 0.41773819
v -0.52858954 -0.49570593 0.40128791
v -0.46133112 -0.54410547 0.46201068
v -0.55736798 -0.49240791 0.4366948
v -0.48652648 -0.54686421 0.50157862
v -0.59069591 -0.51000195 0.46087253
v -0.51577603 -0.57131624 0.52892035
v -0.62269258 -0.54330807 0.47156983
v -0.54418617 -0.61065018 0.54144167
v -0.5697357 -0.65969312 0.54266935
v -0.65550786 -0.44689983 0.37805306
v -0.61839997 -0.43610307 0.35698184
v -0.66424912 -0.38277345 0.26432961
v -0.58643496 -0.44488611 0.32673063
v -0.63001161 -0.39424058 0.24100548
v -0.65624713 -0.34307497 0.14807644
v -0.60185283 -0.41796046 0.21236155
v -0.62646323 -0.36845436 0.12495225
v -0.63884645 -0.3177576 0.03154597
v -0.60223794 -0.40591409 0.09615952
v -0.61388719 -0.35681784 0.00699141
v -0.61838752 -0.31025606 -0.09022272
v -0.59449696 -0.41055256 -0.02411857
v -0.59893071 -0.36580723 -0.11583647
v -0.59823572 -0.32868373 -0.21483099
v -0.5877093 -0.43799972 -0.14684332
v -0.58609592 -0.40201768 -0.23852586
v -0.58008551 -0.37546485 -0.33406439
v -0.58539766 -0.48933836 -0.26636382
v -0.57751274 -0.46337315 -0.35470792
v -0.56572824 -0.44513005 -0.44471159
v -0.58830261 -0.55367577 -0.37819197
v -0.57461017 -0.53542476 -0.46174913
v -0.55754828 -0.52388668 -0.54665362
v -0.59660017 -0.6211152 -0.48260033
v -0.57848787 -0.60987019 -0.56137073
v -0.55710208 -0.60479736 -0.64062172
v -0.60789018 -0.68009126 -0.57888877
v -0.58496934 -0.67353814 -0.6537413
v -0.55854302 -0.67269027 -0.72813123
v -0.61561065 -0.72288793 -0.668549
v -0.58801484 -0.72162354 -0.74086999
v -0.55533808 -0.72468262 -0.81131869
v -0.62159657 -0.75696188 -0.75680953
v -0.58774858 -0.76010686 -0.82731723
v -0.54676324 -0.76777225 -0.8941645
v -0.62450999 -0.78168404 -0.84794116
v -0.58159691 -0.79063928 -0.9169389
v -0.52976495 -0.80365639 -0.98053246
v -0.6186487 -0.79420983 -0.94530689
v -0.56306362 -0.80747205 -1.01301085
v -0.65312266 -0.7768644 -0.97557485
v -0.59358036 -0.78985434 -1.04809653
v -0.68396645 -0.74246341 -1.00516164
v -0.62039846 -0.75534552 -1.08323407
v -0.71291595 -0.69151204 -1.03325784
v -0.64479237 -0.7043758 -1.11758685
v -0.73958969 -0.62039023 -1.05738115
v -0.66719579 -0.6320911 -1.15022099
v -0.68351215 -0.54235529 -1.17524635
v -0.76792371 -0.68563962 -0.94257223
v -0.73591685 -0.73557835 -0.92099487
v -0.77774095 -0.73389679 -0.83397746
v -0.70157551 -0.7686035 -0.89710122
v -0.74094605 -0.76581597 -0.81591033
v -0.77177423 -0.768597 -0.73400336
v -0.70093399 -0.78176629 -0.79595696
v -0.72971677 -0.7827602 -0.71872878
v -0.75276017 -0.79065424 -0.64181482
v -0.68783325 -0.77855658 -0.70168888
v -0.71047717 -0.78525859 -0.62770503
v -0.72796535 -0.79873752 -0.55463761
v -0.67232847 -0.76425194 -0.61224746
v -0.69040352 -0.77659165 -0.53994995
v -0.70393031 -0.79503685 -0.46886819
v -0.65771383 -0.74185127 -0.52334791
v -0.67243701 -0.760719 -0.45224696
v -0.68118345 -0.7855857 -0.38287708
v -0.64110225 -0.71040558 -0.43106797
v -0.65033167 -0.73473542 -0.35999995
v -0.65272855 -0.76559549 -0.29106384
v -0.62044775 -0.66376125 -0.32969552
v -0.62364113 -0.69546186 -0.2572416
v -0.61793446 -0.73337316 -0.1878333
v -0.60079622 -0.61231178 -0.21944385
v -0.59550613 -0.65160453 -0.14539389
v -0.58041417 -0.69441855 -0.07449428
v -0.58332884 -0.56586206 -0.10383718
v -0.57011407 -0.60972595 -0.02906781
v -0.5467813 -0.65357303 0.04087288
v -0.57106769 -0.52670967 0.01732915
v -0.54902148 -0.5711503 0.09142209
v -0.51455307 -0.61398881 0.15792995
v -0.5614556 -0.501742 0.14004598
v -0.52558082 -0.54571872 0.21113918
v -0.57933193 -0.45317533 0.17930004
v -0.54104161 -0.49927166 0.25484752
v -0.56080341 -0.46613934 0.29264006
v -0.5831381 -0.45647984 0.06092091
v -0.58320772 -0.48140144 -0.06202378
v -0.58785587 -0.52403098 -0.18241487
v -0.59743148 -0.57908529 -0.29658016
v -0.61075043 -0.6388545 -0.40474084
v -0.62674289 -0.69223463 -0.50452786
v -0.63876467 -0.72934711 -0.59578913
v -0.64948505 -0.75802087 -0.68471449
v -0.65962052 -0.77765381 -0.77556806
v -0.66432476 -0.78571236 -0.87224245
v 0.0865788 -1.17900526 0.17386964
v 0.08159229 -1.07871317 0.21185895
v 0.07881613 -0.97881507 0.26264247
v 0.07690474 -0.88743782 0.32048833
v 0.07541891 -0.80713695 0.38468572
v 0.07477068 -0.74280512 0.45037248
v 0.07532695 -0.70341724 0.50521755
v 0.07713677 -0.68029969 0.55677175
v 0.08009573 -0.67785424 0.60604125
v 0.08386905 -0.69977003 0.64920872
v 0.08804681 -0.74413591 0.67645591
v 0.09283441 -0.80398947 0.68908476
v 0.09877459 -0.88118773 0.68970435
v 0.10570412 -0.98245066 0.67537885
v 0.11381182 -1.0937035 0.64394319
v 0.12484114 -1.1990925 0.59937965
v 0.13711126 -1.2951672 0.54404133
v 0.14789 -1.37706267 0.48042267
v 0.1536239 -1.43944346 0.41244733
v 0.15424853 -1.47798454 0.35137856
v 0.15120433 -1.49827623 0.29450678
v 0.1454326 -1.50053775 0.24330903
v 0.13750293 -1.48497593 0.19953295
v 0.1280504 -1.45204889 0.16775922
v 0.11863085 -1.40578627 0.14908587
v 0.10766501 -1.34603416 0.14312478
v 0.09574019 -1.2729119 0.15042354
v 0.19196859 -1.25421571 0.13752536
v 0.17349399 -1.16692674 0.1608131
v 0.21143667 -1.32246089 0.12938118
v 0.30768659 -1.2865169 0.10567811
v 0.28331333 -1.2247039 0.11540529
v 0.23095345 -1.37882721 0.13386206
v 0.33362972 -1.33874845 0.10779588
v 0.42352238 -1.28979289 0.07321164
v 0.3936007 -1.24248731 0.07319711
v 0.24936188 -1.42286932 0.15148888
v 0.36009615 -1.37925899 0.12389852
v 0.45577359 -1.32660007 0.08695767
v 0.5378018 -1.26864802 0.04579008
v 0.50132948 -1.23536598 0.03335288
v 0.38500005 -1.40619909 0.1553622
v 0.48718237 -1.34759366 0.11881066
v 0.57342577 -1.28516292 0.07554328
v 0.64532244 -1.22046816 0.02683173
v 0.60653966 -1.20810592 -0.00158855
v 0.51303082 -1.35164594 0.16253621
v 0.60333192 -1.28407001 0.11755092
v 0.67742198 -1.21482908 0.06766948
v 0.73736649 -1.14462518 0.01470639
v 0.70295989 -1.15403783 -0.02410126
v 0.62544912 -1.26657187 0.16847071
v 0.70226627 -1.19398295 0.11774981
v 0.76485711 -1.12011408 0.06337683
v 0.81462031 -1.04992651 0.00383399
v 0.78460741 -1.07778084 -0.04223012
v 0.71907466 -1.15774321 0.17820049
v 0.78441482 -1.08057904 0.12303903
v 0.83727204 -1.00713002 0.06068105
v 0.87896007 -0.93978011 -0.01019617
v 0.85380518 -0.98554271 -0.06211423
v 0.79324394 -1.02447009 0.19450347
v 0.85027891 -0.94758051 0.12917466
v 0.89476186 -0.87695348 0.05234362
v 0.92628222 -0.81263977 -0.0367253
v 0.9082902 -0.87843167 -0.09102711
v 0.84784299 -0.8740158 0.20392434
v 0.89743024 -0.7998296 0.12015564
v 0.93121975 -0.73302495 0.02153462
v 0.95012658 -0.67272895 -0.08441522
v 0.94388514 -0.75440037 -0.1342428
v 0.88528513 -0.71815842 0.17885321
v 0.92221379 -0.64958339 0.07288055
v 0.94220215 -0.58693927 -0.0381486
v 0.95023876 -0.52920234 -0.14764291
v 0.95770651 -0.61830592 -0.19033557
v 0.90166127 -0.56521177 0.11278171
v 0.92104315 -0.50073564 0.0001063
v 0.92855268 -0.44098979 -0.11131262
v 0.92931544 -0.38859543 -0.22339208
v 0.95125913 -0.47810193 -0.25563475
v 0.89078903 -0.42464253 0.0298484
v 0.89847356 -0.36520463 -0.08323884
v 0.89903003 -0.31313675 -0.19874157
v 0.89413678 -0.27028584 -0.3176192
v 0.92485702 -0.34493458 -0.33842834
v 0.86493796 -0.30681911 -0.06305414
v 0.86536222 -0.25588002 -0.18064294
v 0.86006623 -0.21405005 -0.30158039
v 0.8496375 -0.1818321 -0.42481032
v 0.8840515 -0.23610073 -0.4387505
v 0.82932615 -0.21373663 -0.16742174
v 0.82372564 -0.17328958 -0.28930801
v 0.81318199 -0.14195199 -0.41314545
v 0.79568278 -0.12124575 -0.53723037
v 0.83233064 -0.1598591 -0.54880935
v 0.78571027 -0.1464785 -0.2806558
v 0.77513176 -0.11561115 -0.40379524
v 0.75779551 -0.09567116 -0.5269261
v 0.73184949 -0.08496313 -0.64719414
v 0.76924824 -0.10990845 -0.65903258
v 0.73472881 -0.10452472 -0.39733603
v 0.71730828 -0.08633857 -0.51862007
v 0.69118189 -0.07684693 -0.63605243
v 0.65712451 -0.07305342 -0.74726176
v 0.69551509 -0.08128024 -0.76214546
v 0.67739129 -0.09396482 -0.51297974
v 0.65252202 -0.08624906 -0.62636977
v 0.62025165 -0.08338243 -0.73376017
v 0.5786221 -0.08341514 -0.83438938
v 0.61275833 -0.07333292 -0.85181379
v 0.61987412 -0.11214231 -0.61934334
v 0.5896101 -0.10931318 -0.72302156
v 0.55091339 -0.10960322 -0.82025939
v 0.50565439 -0.11501371 -0.90971452
v 0.52769666 -0.08734792 -0.92538881
v 0.56462639 -0.14704199 -0.71513348
v 0.52999121 -0.1476279 -0.80981314
v 0.48770374 -0.15161466 -0.89742821
v 0.43565973 -0.15649634 -0.97544211
v 0.4505195 -0.12080307 -0.98817384
v 0.51402264 -0.19592131 -0.80265992
v 0.47456869 -0.19754359 -0.88894277
v 0.42512932 -0.20127782 -0.96719473
v 0.36741837 -0.20589292 -1.03590619
v 0.3753575 -0.16163326 -1.04313647
v 0.46311846 -0.25632226 -0.88233977
v 0.41582921 -0.26051619 -0.96080255
v 0.35993674 -0.26631519 -1.03058576
v 0.29832342 -0.27350428 -1.09056735
v 0.3040975 -0.21042294 -1.09534156
v 0.40760234 -0.34144777 -0.95517003
v 0.35201534 -0.3517619 -1.02653646
v 0.29076215 -0.36404404 -1.0874089
v 0.22426706 -0.37524023 -1.13623726
v 0.23075857 -0.28148287 -1.1397978
v 0.35200893 -0.44808766 -1.01558101
v 0.29177242 -0.46849322 -1.07392382
v 0.22503514 -0.48554149 -1.12178528
v 0.15339599 -0.49977999 -1.15639114
v 0.15227435 -0.38433283 -1.17248022
v 0.3064267 -0.57044512 -1.04888057
v 0.23969066 -0.59300583 -1.09297192
v 0.16617585 -0.61435377 -1.12452018
v 0.08476871 -0.62883269 -1.14436876
v 0.07736665 -0.51113057 -1.17695486
v 0.25437054 -0.68203032 -1.07081019
v 0.17760168 -0.70199149 -1.09900689
v 0.09073545 -0.71518135 -1.11773324
v 0.18509045 -0.75957447 -1.08915412
v 0.09545595 -0.77307403 -1.10581517
v 0.10094706 -0.821231 -1.10694587
v 0.10625545 -0.86215174 -1.12254607
v 0.11047864 -0.88833093 -1.1543951
v 0.11298288 -0.89222586 -1.19523978
v 0.11385341 -0.87622398 -1.23666226
v 0.11355299 -0.84303349 -1.27815771
v 0.11254785 -0.79055237 -1.3224672
v 0.11213141 -0.71021229 -1.37334001
v 0.11450159 -0.60551601 -1.42007315
v 0.12038798 -0.49376353 -1.44639444
v 0.12269672 -0.38487881 -1.44553554
v 0.12014689 -0.29060506 -1.42104733
v 0.1143031 -0.22329999 -1.38766145
v 0.1076796 -0.1763204 -1.3534789
v 0.10107226 -0.14306679 -1.3201065
v 0.09525007 -0.12261816 -1.28930461
v 0.08968859 -0.11367994 -1.25723147
v 0.08463343 -0.12204012 -1.22696304
v 0.08259115 -0.15121869 -1.21178102
v 0.08156263 -0.18724884 -1.204499
v 0.08108539 -0.22686412 -1.20144677
v 0.07994394 -0.29039129 -1.19933605
v 0.07694847 -0.39094364 -1.19416332
v 0.15748214 -0.28775993 -1.1767472
v 0.15999421 -0.22347995 -1.17959857
v 0.23470009 -0.21721985 -1.14340853
v 0.16124892 -0.1822616 -1.18342733
v 0.2375466 -0.17566274 -1.14831781
v 0.30922812 -0.16825276 -1.10116112
v 0.24244239 -0.1386861 -1.15764999
v 0.31732061 -0.13184374 -1.1119132
v 0.38694459 -0.12573897 -1.05542469
v 0.32870227 -0.10251236 -1.12801682
v 0.40207657 -0.09764515 -1.07222318
v 0.46904563 -0.09387359 -1.00474715
v 0.42638343 -0.09233899 -1.09911513
v 0.49656817 -0.08739414 -1.02939844
v 0.55906975 -0.07919464 -0.94683831
v 0.52644074 -0.093137 -1.05603671
v 0.59223371 -0.08626906 -0.96937972
v 0.64879179 -0.08149167 -0.87021851
v 0.62605553 -0.10862305 -0.99191606
v 0.68456202 -0.10459115 -0.8881672
v 0.73249238 -0.10497254 -0.77663785
v 0.71982872 -0.13981296 -0.90519785
v 0.76818633 -0.14125707 -0.79088646
v 0.80545234 -0.14753085 -0.67155087
v 0.80295503 -0.18902738 -0.80446642
v 0.84003925 -0.19690157 -0.68389892
v 0.86649972 -0.21190753 -0.56130456
v 0.87316429 -0.26597976 -0.69673037
v 0.89886087 -0.28339797 -0.57582014
v 0.91564077 -0.3096002 -0.45613843
v 0.92322236 -0.37435442 -0.59403973
v 0.93869161 -0.40058204 -0.47839072
v 0.94717109 -0.43505775 -0.36542424
v 0.945656 -0.49464312 -0.50604069
v 0.95405411 -0.52829939 -0.3986887
v 0.9581815 -0.56967502 -0.29406508
v 0.94565671 -0.61612021 -0.43228876
v 0.9506635 -0.65523529 -0.33279922
v 0.95090478 -0.70180624 -0.23401345
v 0.93035835 -0.72730183 -0.36552801
v 0.9318695 -0.77121067 -0.27228087
v 0.92546492 -0.82205104 -0.17965394
v 0.90459859 -0.82258075 -0.30232858
v 0.89879173 -0.87150979 -0.21684278
v 0.88210505 -0.92627477 -0.13585923
v 0.86540478 -0.90708994 -0.24717491
v 0.84873044 -0.95959138 -0.17305474
v 0.82160556 -1.01629293 -0.10444925
v 0.80956834 -0.9778791 -0.20067012
v 0.78390377 -1.0321908 -0.13685388
v 0.74853146 -1.09071576 -0.07822557
v 0.74119192 -1.03103315 -0.15720999
v 0.70659834 -1.08680725 -0.10221736
v 0.66223394 -1.14612913 -0.05021376
v 0.66460531 -1.06426417 -0.10843166
v 0.62098348 -1.12039434 -0.05840545
v 0.56650656 -1.17870664 -0.01220107
v 0.58507722 -1.08434641 -0.05234904
v 0.53165715 -1.13876915 -0.00704852
v 0.46802866 -1.19199609 0.03509062
v 0.50195908 -1.09177506 0.00854298
v 0.43929886 -1.14107382 0.04917902
v 0.36622941 -1.1860392 0.08517845
v 0.41050523 -1.07437086 0.07637129
v 0.33846178 -1.11240112 0.11140593
v 0.25848457 -1.14421534 0.13977046
v 0.31404051 -1.02686882 0.15090957
v 0.2385603 -1.05368173 0.17795985
v 0.16126935 -1.06946265 0.19855213
v 0.22914272 -0.95515281 0.22873283
v 0.15581016 -0.96968042 0.24954788
v 0.22491903 -0.86200976 0.28796568
v 0.15240491 -0.87779647 0.30798745
v 0.22132681 -0.78032738 0.35432073
v 0.14973613 -0.79696399 0.37311393
v 0.22064197 -0.71706682 0.41978678
v 0.14882302 -0.73342305 0.43845263
v 0.22282032 -0.67747438 0.47445312
v 0.14986577 -0.6938917 0.49332562
v 0.22759683 -0.65340703 0.52443695
v 0.15304575 -0.67017018 0.54462653
v 0.23624773 -0.64689934 0.57436907
v 0.15864667 -0.66614711 0.59434062
v 0.24875208 -0.66391694 0.61838364
v 0.16687491 -0.68561941 0.63863647
v 0.2632603 -0.70437151 0.64920866
v 0.17619237 -0.72930556 0.6671223
v 0.27650395 -0.76254057 0.66391164
v 0.18490578 -0.78839701 0.68040221
v 0.28888788 -0.83235442 0.66557848
v 0.19430106 -0.86337447 0.68117755
v 0.30683434 -0.92222094 0.65255343
v 0.20799766 -0.96091938 0.66674262
v 0.3355475 -1.02225375 0.61994791
v 0.22731764 -1.06868207 0.6342538
v 0.36667904 -1.11755311 0.57192438
v 0.2481493 -1.16896808 0.5889014
v 0.39691838 -1.20107257 0.51402086
v 0.27018034 -1.26015067 0.53193432
v 0.42238631 -1.2747339 0.4464789
v 0.29015195 -1.33798754 0.46687331
v 0.43520715 -1.33702242 0.3733477
v 0.30131989 -1.39936828 0.39718142
v 0.43309509 -1.3787899 0.30799385
v 0.30146735 -1.43861222 0.33528134
v 0.4228383 -1.40419364 0.250797
v 0.29474172 -1.46103262 0.27835041
v 0.40662106 -1.41400063 0.19929255
v 0.28309243 -1.46630096 0.22665479
v 0.26759558 -1.45325624 0.18321563
v 0.53290969 -1.33773493 0.21396713
v 0.54584974 -1.30880713 0.27199307
v 0.64010906 -1.2341963 0.22828887
v 0.5486117 -1.26174891 0.34079909
v 0.64398604 -1.18356883 0.29982444
v 0.72472703 -1.10443556 0.25090795
v 0.63306695 -1.11581969 0.37924733
v 0.71512895 -1.03544414 0.3308013
v 0.78636598 -0.95413786 0.27294927
v 0.69109028 -0.95631003 0.40640774
v 0.76570838 -0.87496042 0.34540259
v 0.8318904 -0.79387092 0.27072444
v 0.73859804 -0.79071688 0.40226182
v 0.80959248 -0.70950305 0.32160496
v 0.86489999 -0.63387024 0.22311855
v 0.78070932 -0.62875872 0.35817548
v 0.83653694 -0.55431711 0.25531014
v 0.87213724 -0.48740053 0.1434483
v 0.80584722 -0.49261781 0.27469611
v 0.84018057 -0.42830285 0.16298712
v 0.85745292 -0.36594712 0.05028867
v 0.80704027 -0.38392102 0.17447261
v 0.82243454 -0.32245051 0.06349522
v 0.82941877 -0.26347822 -0.04918333
v 0.78549003 -0.29272171 0.07034139
v 0.79221129 -0.23444405 -0.04104785
v 0.79160785 -0.18616956 -0.15905471
v 0.75191986 -0.21961939 -0.03866296
v 0.75127041 -0.17309382 -0.15562997
v 0.7455284 -0.13468921 -0.27591458
v 0.7104175 -0.17673611 -0.15797334
v 0.70521813 -0.13978846 -0.27599772
v 0.69466322 -0.11119487 -0.39495679
v 0.6695165 -0.1610887 -0.28126871
v 0.65953487 -0.13473449 -0.39657697
v 0.64323025 -0.11930251 -0.51015859
v 0.6304956 -0.17185117 -0.4014258
v 0.61480051 -0.15741503 -0.51037699
v 0.59258955 -0.14986808 -0.61517661
v 0.59081292 -0.20734623 -0.5132808
v 0.57045173 -0.19988966 -0.61392593
v 0.54519772 -0.19635748 -0.71051871
v 0.55268597 -0.2601546 -0.61510622
v 0.52958107 -0.25595676 -0.70857536
v 0.50050604 -0.25487801 -0.79775995
v 0.51634645 -0.33381786 -0.70837122
v 0.48867416 -0.33357492 -0.79440212
v 0.45344927 -0.33563128 -0.87695771
v 0.48284828 -0.42423787 -0.79279887
v 0.44870123 -0.42581462 -0.8721854
v 0.40518921 -0.43229225 -0.94795078
v 0.45372757 -0.52255696 -0.8658204
v 0.41413801 -0.53151577 -0.93408244
v 0.36564162 -0.54835343 -0.99539738
v 0.4296171 -0.6257047 -0.92687398
v 0.38207307 -0.64072775 -0.98487895
v 0.32294499 -0.66034293 -1.03339302
v 0.39891204 -0.7078942 -0.9851616
v 0.33832714 -0.72433114 -1.03128492
v 0.26630854 -0.74296981 -1.0647391
v 0.35419985 -0.77283263 -1.03852868
v 0.27959632 -0.7918424 -1.0706532
v 0.19455598 -0.80902749 -1.09289944
v 0.29586279 -0.83290404 -1.08941483
v 0.20510251 -0.85093396 -1.11061966
v 0.31244811 -0.86068314 -1.1210314
v 0.21564118 -0.87824016 -1.1429634
v 0.32695314 -0.86565774 -1.16278672
v 0.22318391 -0.88226175 -1.18554318
v 0.33807072 -0.85039413 -1.20622992
v 0.22722789 -0.86746215 -1.22884881
v 0.34532621 -0.81961202 -1.24847507
v 0.22937826 -0.83556908 -1.27067852
v 0.3499259 -0.77250051 -1.29114007
v 0.22990991 -0.78645885 -1.31319689
v 0.35223954 -0.69849199 -1.33869898
v 0.22915847 -0.7087717 -1.36055707
v 0.35198214 -0.60529476 -1.37803864
v 0.23025964 -0.60906231 -1.40262186
v 0.35333532 -0.49744024 -1.3979491
v 0.23732449 -0.4972592 -1.42628169
v 0.35444298 -0.38649156 -1.39398241
v 0.24049879 -0.38622763 -1.42456889
v 0.34600725 -0.28829386 -1.36658942
v 0.23502101 -0.28891712 -1.3991363
v 0.33253601 -0.21806848 -1.3321563
v 0.22499561 -0.22088684 -1.36611461
v 0.31676811 -0.16904412 -1.29829323
v 0.21342952 -0.17284677 -1.3325113
v 0.29950827 -0.13321851 -1.26528751
v 0.20140007 -0.13861213 -1.29991591
v 0.28267446 -0.11093435 -1.23468637
v 0.19024704 -0.11672793 -1.26940679
v 0.26612678 -0.10299331 -1.20354187
v 0.17908503 -0.10816194 -1.23736393
v 0.25028231 -0.10931184 -1.17322158
v 0.1686045 -0.11610768 -1.20666027
v 0.16384276 -0.14592307 -1.19145786
v 0.34913158 -0.09624239 -1.15745723
v 0.37002986 -0.104534 -1.18748998
v 0.45219647 -0.09975542 -1.12843048
v 0.39175313 -0.1280362 -1.21820247
v 0.47862118 -0.12179856 -1.15836632
v 0.55764341 -0.11485181 -1.08329772
v 0.50587302 -0.15704412 -1.18990492
v 0.58912277 -0.14963688 -1.11032915
v 0.66054332 -0.14273937 -1.01293969
v 0.62075859 -0.19690513 -1.13566279
v 0.69425541 -0.18988025 -1.03305542
v 0.75448912 -0.18693482 -0.92140966
v 0.72946101 -0.25761696 -1.05341601
v 0.79019707 -0.2534258 -0.93733561
v 0.83743953 -0.25641381 -0.81777548
v 0.81778049 -0.34060284 -0.95018094
v 0.86429113 -0.34440365 -0.83087432
v 0.89892596 -0.35545098 -0.71185964
v 0.87448197 -0.43949008 -0.84489584
v 0.90827953 -0.45108345 -0.72984474
v 0.93134307 -0.4690825 -0.61667513
v 0.89913183 -0.54436701 -0.74595642
v 0.92235297 -0.56138849 -0.63846892
v 0.93681001 -0.58507531 -0.53397452
v 0.89969945 -0.64196825 -0.6535784
v 0.91476607 -0.6632542 -0.55516088
v 0.92430973 -0.691262 -0.45945596
v 0.88508772 -0.72208732 -0.56718552
v 0.89577311 -0.74750834 -0.4773384
v 0.90249234 -0.78096163 -0.38924774
v 0.86270695 -0.78856676 -0.48822832
v 0.86983686 -0.82023906 -0.40612119
v 0.8716399 -0.85993397 -0.32545912
v 0.83190876 -0.84507578 -0.41610482
v 0.83270627 -0.88300329 -0.34130254
v 0.82565015 -0.92789769 -0.26923078
v 0.7891069 -0.8894599 -0.34806057
v 0.78198146 -0.93211162 -0.28087654
v 0.76642334 -0.98011672 -0.21744632
v 0.73974174 -0.91697824 -0.27942028
v 0.72402244 -0.96217352 -0.21856714
v 0.69897526 -1.0113399 -0.16159421
v 0.6886329 -0.93255132 -0.20850662
v 0.66331589 -0.97988963 -0.1526971
v 0.62854999 -1.03062534 -0.10083182
v 0.63460946 -0.94112086 -0.13448126
v 0.59914517 -0.99008572 -0.08324426
v 0.5549286 -1.04086709 -0.03572284
v 0.57072657 -0.93688041 -0.0544326
v 0.52634155 -0.98487311 -0.00742529
v 0.47324508 -1.0311464 0.03648486
v 0.49829834 -0.91032302 0.03733387
v 0.44557407 -0.95282203 0.0804533
v 0.38378399 -0.99225956 0.11841465
v 0.42439252 -0.86743831 0.13483762
v 0.3645204 -0.90533149 0.17017234
v 0.29861202 -0.93475419 0.20160625
v 0.35557997 -0.81149166 0.23212888
v 0.29280728 -0.84001964 0.26217797
v 0.3530938 -0.72787344 0.29851338
v 0.28914299 -0.75710237 0.32943818
v 0.3559336 -0.66361838 0.36223107
v 0.28976976 -0.69370722 0.39457052
v 0.36264205 -0.62290865 0.41486522
v 0.29392728 -0.65387427 0.44852221
v 0.37282282 -0.59701412 0.46266743
v 0.30098974 -0.62914419 0.49742296
v 0.38852626 -0.5865761 0.50954896
v 0.31290599 -0.62035095 0.54634541
v 0.41011813 -0.59562689 0.55142593
v 0.33005076 -0.63365328 0.59001392
v 0.43447008 -0.62598019 0.58086299
v 0.34961038 -0.66988283 0.62113827
v 0.45843032 -0.67272603 0.59624958
v 0.36814284 -0.72377163 0.63665294
v 0.48047429 -0.72812503 0.59813612
v 0.38477757 -0.78725385 0.63917028
v 0.50424426 -0.79367005 0.58854168
v 0.40726447 -0.86383515 0.62758028
v 0.53533065 -0.87399059 0.56145221
v 0.43860241 -0.95292168 0.597678
v 0.57146507 -0.95764225 0.5163486
v 0.47485446 -1.04179883 0.55053168
v 0.60737425 -1.03918743 0.45501697
v 0.51020175 -1.1228882 0.49016013
v 0.53683704 -1.19704628 0.41791471
v 0.65923684 -0.87295943 0.46675106
v 0.6254757 -0.79098194 0.50979155
v 0.70767825 -0.70895755 0.44226822
v 0.59455072 -0.71744072 0.53417766
v 0.67766648 -0.63981175 0.46448731
v 0.75069022 -0.56375551 0.37829172
v 0.65118765 -0.58742106 0.472478
v 0.72261369 -0.51547819 0.38640776
v 0.77552396 -0.44728347 0.28433033
v 0.69108265 -0.47546717 0.38687175
v 0.74163347 -0.41115275 0.28709834
v 0.77104002 -0.35102951 0.17957215
v 0.70343148 -0.38809216 0.28091928
v 0.73183614 -0.33189323 0.1769074
v 0.74618917 -0.27698782 0.07074838
v 0.69140619 -0.32936051 0.16601628
v 0.70568239 -0.27698251 0.06391779
v 0.71032095 -0.22161322 -0.04290488
v 0.66918981 -0.29112008 0.05054371
v 0.67373842 -0.23934529 -0.05387094
v 0.67414492 -0.19615328 -0.16603952
v 0.64347952 -0.26885992 -0.06969357
v 0.64364081 -0.22778077 -0.17840966
v 0.63921141 -0.19507359 -0.28994959
v 0.61807489 -0.27123886 -0.19465746
v 0.61409866 -0.24157457 -0.3021368
v 0.60555809 -0.22062969 -0.40904405
v 0.59355294 -0.30081662 -0.31687173
v 0.58510106 -0.28105065 -0.41875758
v 0.57135224 -0.26785349 -0.51840806
v 0.5702694 -0.35647475 -0.43037077
v 0.55676436 -0.34433552 -0.52563273
v 0.53891509 -0.337172 -0.61855202
v 0.55093026 -0.43352973 -0.53528308
v 0.53288918 -0.42699593 -0.62419176
v 0.51044178 -0.42432785 -0.71030563
v 0.5382871 -0.5180363 -0.63106352
v 0.51490569 -0.51636934 -0.71309286
v 0.48699948 -0.51806622 -0.79199898
v 0.53232735 -0.60432732 -0.71838343
v 0.50314325 -0.60806423 -0.79291862
v 0.46917298 -0.61515128 -0.86305654
v 0.52789086 -0.67689621 -0.80001235
v 0.49169385 -0.68464922 -0.86784213
v 0.44937276 -0.69484299 -0.92987871
v 0.51669478 -0.73214763 -0.87800818
v 0.47124904 -0.74281877 -0.93916904
v 0.41756129 -0.75636786 -0.99333787
v 0.49796924 -0.77974152 -0.95550501
v 0.44068548 -0.79524087 -1.00990176
v 0.37395134 -0.81295085 -1.05574202
v 0.4682829 -0.82017564 -1.03701829
v 0.39682588 -0.83967769 -1.08514559
v 0.49658617 -0.82431066 -1.07309341
v 0.41877818 -0.84434258 -1.12403094
v 0.5218876 -0.80759376 -1.11279308
v 0.43733507 -0.8284558 -1.16572856
v 0.54332518 -0.77381664 -1.15212917
v 0.45220398 -0.79626196 -1.20809316
v 0.5617733 -0.72371798 -1.19122135
v 0.46344101 -0.74818843 -1.2504245
v 0.57752913 -0.65115046 -1.23236441
v 0.47113552 -0.67569929 -1.29584801
v 0.58756876 -0.56138712 -1.26530957
v 0.47456568 -0.58572053 -1.33398914
v 0.58855301 -0.46602529 -1.28130042
v 0.47375249 -0.48625084 -1.3537774
v 0.58094227 -0.36920809 -1.27689862
v 0.46998581 -0.38113549 -1.34864783
v 0.56114912 -0.27725932 -1.25395941
v 0.45589745 -0.28537318 -1.32124042
v 0.53269445 -0.20530575 -1.22156369
v 0.43525308 -0.21312798 -1.28520274
v 0.4143058 -0.16429947 -1.25146997
v 0.65359842 -0.26674732 -1.16195809
v 0.67811954 -0.35506519 -1.17988777
v 0.75673764 -0.34433233 -1.06813037
v 0.68770742 -0.44790279 -1.18487405
v 0.76719665 -0.43678095 -1.07517957
v 0.82829487 -0.43429893 -0.96069288
v 0.7599312 -0.53174936 -1.07287621
v 0.8196997 -0.52958232 -0.96472162
v 0.86539602 -0.53374058 -0.85506719
v 0.79708015 -0.61643594 -0.95814061
v 0.84193313 -0.61913502 -0.85658234
v 0.87604826 -0.62755364 -0.75447982
v 0.81151366 -0.68561404 -0.84847307
v 0.8454042 -0.69149953 -0.75361102
v 0.86931681 -0.7034716 -0.65969836
v 0.81055367 -0.73782259 -0.74608159
v 0.83483523 -0.74796271 -0.65872389
v 0.85151416 -0.76462674 -0.57242506
v 0.79537278 -0.77768069 -0.6524496
v 0.81274646 -0.79311412 -0.572007
v 0.82491642 -0.81512439 -0.49303594
v 0.77049237 -0.80543923 -0.56601244
v 0.78266358 -0.82564944 -0.4909853
v 0.78894949 -0.85380351 -0.41829863
v 0.74060708 -0.81786215 -0.48241028
v 0.74707198 -0.84376758 -0.41171869
v 0.74710321 -0.87716507 -0.34408667
v 0.71106874 -0.81993055 -0.39926233
v 0.71151667 -0.8512364 -0.33223488
v 0.70433551 -0.88918983 -0.2684856
v 0.68242311 -0.81643587 -0.3155874
v 0.67529737 -0.85335785 -0.25129917
v 0.65959483 -0.89529544 -0.19069239
v 0.64634335 -0.80283922 -0.22509169
v 0.63099694 -0.84439677 -0.16280055
v 0.60589522 -0.88944691 -0.10581603
v 0.60253328 -0.77554464 -0.12259253
v 0.57773834 -0.82019895 -0.06286693
v 0.54287928 -0.86581385 -0.00987292
v 0.55534189 -0.7385891 -0.0095616
v 0.52100086 -0.78278857 0.04663667
v 0.47664836 -0.82602024 0.09411868
v 0.51207917 -0.69635587 0.10279009
v 0.4670763 -0.73770636 0.15434317
v 0.41407185 -0.77667862 0.1968915
v 0.46834072 -0.65505147 0.21440635
v 0.4133467 -0.69342184 0.26066201
v 0.47670316 -0.58844596 0.27210599
v 0.41874396 -0.62799102 0.32182395
v 0.48922616 -0.54415899 0.3194296
v 0.42838764 -0.58571809 0.3723292
v 0.50590223 -0.51373654 0.36155149
v 0.4418165 -0.55802267 0.41773819
v 0.52858954 -0.49570593 0.40128791
v 0.46133112 -0.54410547 0.46201068
v 0.55736798 -0.49240791 0.4366948
v 0.48652648 -0.54686421 0.50157862
v 0.59069591 -0.51000195 0.46087253
v 0.51577603 -0.57131624 0.52892035
v 0.62269258 -0.54330807 0.47156983
v 0.54418617 -0.61065018 0.54144167
v 0.5697357 -0.65969312 0.54266935
v 0.65550786 -0.44689983 0.37805306
v 0.61839997 -0.43610307 0.35698184
v 0.66424912 -0.38277345 0.26432961
v 0.58643496 -0.44488611 0.32673063
v 0.63001161 -0.39424058 0.24100548
v 0.65624713 -0.34307497 0.14807644
v 0.60185283 -0.41796046 0.21236155
v 0.62646323 -0.36845436 0.12495225
v 0.63884645 -0.3177576 0.03154597
v 0.60223794 -0.40591409 0.09615952
v 0.61388719 -0.35681784 0.00699141
v 0.61838752 -0.31025606 -0.09022272
v 0.59449696 -0.41055256 -0.02411857
v 0.59893071 -0.36580723 -0.11583647
v 0.59823572 -0.32868373 -0.21483099
v 0.5877093 -0.43799972 -0.14684332
v 0.58609592 -0.40201768 -0.23852586
v 0.58008551 -0.37546485 -0.33406439
v 0.58539766 -0.48933836 -0.26636382
v 0.57751274 -0.46337315 -0.35470792
v 0.56572824 -0.44513005 -0.44471159
v 0.58830261 -0.55367577 -0.37819197
v 0.57461017 -0.53542476 -0.46174913
v 0.55754828 -0.52388668 -0.54665362
v 0.59660017 -0.6211152 -0.48260033
v 0.57848787 -0.60987019 -0.56137073
v 0.55710208 -0.60479736 -0.64062172
v 0.60789018 -0.68009126 -0.57888877
v 0.58496934 -0.67353814 -0.6537413
v 0.55854302 -0.67269027 -0.72813123
v 0.61561065 -0.72288793 -0.668549
v 0.58801484 -0.72162354 -0.74086999
v 0.55533808 -0.72468262 -0.81131869
v 0.62159657 -0.75696188 -0.75680953
v 0.58774858 -0.76010686 -0.82731723
v 0.54676324 -0.76777225 -0.8941645
v 0.62450999 -0.78168404 -0.84794116
v 0.58159691 -0.79063928 -0.9169389
v 0.52976495 -0.80365639 -0.98053246
v 0.6186487 -0.79420983 -0.94530689
v 0.56306362 -0.80747205 -1.01301085
v 0.65312266 -0.7768644 -0.97557485
v 0.59358036 -0.78985434 -1.04809653
v 0.68396645 -0.74246341 -1.00516164
v 0.62039846 -0.75534552 -1.08323407
v 0.71291595 -0.69151204 -1.03325784
v 0.64479237 -0.7043758 -1.11758685
v 0.73958969 -0.62039023 -1.05738115
v 0.66719579 -0.6320911 -1.15022099
v 0.68351215 -0.54235529 -1.17524635
v 0.76792371 -0.68563962 -0.94257223
v 0.73591685 -0.73557835 -0.92099487
v 0.77774095 -0.73389679 -0.83397746
v 0.70157551 -0.7686035 -0.89710122
v 0.74094605 -0.76581597 -0.81591033
v 0.77177423 -0.768597 -0.73400336
v 0.70093399 -0.78176629 -0.79595696
v 0.72971677 -0.7827602 -0.71872878
v 0.75276017 -0.79065424 -0.64181482
v 0.68783325 -0.77855658 -0.70168888
v 0.71047717 -0.78525859 -0.62770503
v 0.72796535 -0.79873752 -0.55463761
v 0.67232847 -0.76425194 -0.61224746
v 0.69040352 -0.77659165 -0.53994995
v 0.70393031 -0.79503685 -0.46886819
v 0.65771383 -0.74185127 -0.52334791
v 0.67243701 -0.760719 -0.45224696
v 0.68118345 -0.7855857 -0.38287708
v 0.64110225 -0.71040558 -0.43106797
v 0.65033167 -0.73473542 -0.35999995
v 0.65272855 -0.76559549 -0.29106384
v 0.62044775 -0.66376125 -0.32969552
v 0.62364113 -0.69546186 -0.2572416
v 0.61793446 -0.73337316 -0.1878333
v 0.60079622 -0.61231178 -0.21944385
v 0.59550613 -0.65160453 -0.14539389
v 0.58041417 -0.69441855 -0.07449428
v 0.58332884 -0.56586206 -0.10383718
v 0.57011407 -0.60972595 -0.02906781
v 0.5467813 -0.65357303 0.04087288
v 0.57106769 -0.52670967 0.01732915
v 0.54902148 -0.5711503 0.09142209
v 0.51455307 -0.61398881 0.15792995
v 0.5614556 -0.501742 0.14004598
v 0.52558082 -0.54571872 0.21113918
v 0.57933193 -0.45317533 0.17930004
v 0.54104161 -0.49927166 0.25484752
v 0.56080341 -0.46613934 0.29264006
v 0.5831381 -0.45647984 0.06092091
v 0.58320772 -0.48140144 -0.06202378
v 0.58785587 -0.52403098 -0.18241487
v 0.59743148 -0.57908529 -0.29658016
v 0.61075043 -0.6388545 -0.40474084
v 0.62674289 -0.69223463 -0.50452786
v 0.63876467 -0.72934711 -0.59578913
v 0.64948505 -0.75802087 -0.68471449
v 0.65962052 -0.77765381 -0.77556806
v 0.66432476 -0.78571236 -0.87224245
f 1 2 3 4
f 1 4 5 6
f 7 8 6 5
f 10 8 7 9
f 9 11 12 10
f 11 13 14 12
f 13 15 16 14
f 16 15 17 18
f 18 17 19 20
f 20 19 21 22
f 22 21 23 24
f 24 23 25 26
f 26 25 27 28
f 28 27 29 30
f 30 29 31 32
f 32 31 33 34
f 34 33 35 36
f 36 35 37 38
f 38 37 39 40
f 40 39 41 42
f 42 41 43 44
f 44 43 45 46
f 46 45 47 48
f 48 47 49 50
f 50 49 51 52
f 52 51 53 54
f 54 53 3 2
f 53 55 56 3
f 53 51 57 55
f 57 58 59 55
f 57 51 49 60
f 57 60 61 58
f 61 62 63 58
f 61 60 64 65
f 61 65 66 62
f 66 67 68 62
f 66 65 69 70
f 66 70 71 67
f 71 72 73 67
f 71 70 74 75
f 71 75 76 72
f 76 77 78 72
f 76 75 79 80
f 76 80 81 77
f 81 82 83 77
f 81 80 84 85
f 81 85 86 82
f 86 87 88 82
f 86 85 89 90
f 86 90 91 87
f 91 92 93 87
f 91 90 94 95
f 91 95 96 92
f 96 97 98 92
f 96 95 99 100
f 96 100 101 97
f 101 102 103 97
f 101 100 104 105
f 101 105 106 102
f 106 107 108 102
f 106 105 109 110
f 106 110 111 107
f 111 112 113 107
f 111 110 114 115
f 111 115 116 112
f 116 117 118 112
f 116 115 119 120
f 116 120 121 117
f 121 122 123 117
f 121 120 124 125
f 121 125 126 122
f 126 127 128 122
f 126 125 129 130
f 126 130 131 127
f 131 132 133 127
f 131 130 134 135
f 131 135 136 132
f 136 137 138 132
f 136 135 139 140
f 136 140 141 137
f 141 142 143 137
f 141 140 144 145
f 141 145 146 142
f 146 147 148 142
f 146 145 149 150
f 146 150 151 147
f 151 152 153 147
f 151 150 154 155
f 151 155 156 152
f 156 157 158 152
f 156 155 159 160
f 156 160 161 157
f 161 162 163 157
f 161 160 164 165
f 161 165 166 162
f 166 167 168 162
f 166 165 169 170
f 166 170 171 167
f 171 172 173 167
f 171 170 174 175
f 171 175 176 172
f 176 177 178 172
f 176 175 179 180
f 176 180 181 177
f 181 180 182 183
f 183 182 184 185
f 185 184 186 187
f 187 186 188 189
f 189 188 190 191
f 191 190 192 193
f 193 192 194 195
f 195 194 196 197
f 197 196 198 199
f 199 198 200 201
f 201 200 202 203
f 203 202 204 205
f 205 204 206 207
f 207 206 208 209
f 209 208 210 211
f 211 210 212 213
f 213 212 214 215
f 215 214 216 217
f 217 216 218 219
f 219 218 220 221
f 221 220 222 223
f 223 222 224 225
f 225 224 226 227
f 227 226 173 228
f 228 173 172 178
f 226 224 229 168
f 226 168 167 173
f 229 224 222 230
f 229 230 231 163
f 229 163 162 168
f 231 230 232 233
f 231 233 234 158
f 231 158 157 163
f 234 233 235 236
f 234 236 237 153
f 234 153 152 158
f 237 236 238 239
f 237 239 240 148
f 237 148 147 153
f 240 239 241 242
f 240 242 243 143
f 240 143 142 148
f 243 242 244 245
f 243 245 246 138
f 243 138 137 143
f 246 245 247 248
f 246 248 249 133
f 246 133 132 138
f 249 248 250 251
f 249 251 252 128
f 249 128 127 133
f 252 251 253 254
f 252 254 255 123
f 252 123 122 128
f 255 254 256 257
f 255 257 258 118
f 255 118 117 123
f 258 257 259 260
f 258 260 261 113
f 258 113 112 118
f 261 260 262 263
f 261 263 264 108
f 261 108 107 113
f 264 263 265 266
f 264 266 267 103
f 264 103 102 108
f 267 266 268 269
f 267 269 270 98
f 267 98 97 103
f 270 269 271 272
f 270 272 273 93
f 270 93 92 98
f 273 272 274 275
f 273 275 276 88
f 273 88 87 93
f 276 275 277 278
f 276 278 279 83
f 276 83 82 88
f 279 278 280 281
f 279 281 282 78
f 279 78 77 83
f 282 281 283 284
f 282 284 285 73
f 282 73 72 78
f 285 284 286 287
f 285 287 288 68
f 285 68 67 73
f 288 287 289 290
f 288 290 291 63
f 288 63 62 68
f 291 290 292 293
f 291 293 294 59
f 291 59 58 63
f 294 293 295 296
f 294 296 297 56
f 294 56 55 59
f 297 296 298 299
f 297 299 5 4
f 297 4 3 56
f 299 298 300 301
f 299 301 7 5
f 301 300 302 303
f 301 303 9 7
f 303 302 304 305
f 303 305 11 9
f 305 304 306 307
f 305 307 13 11
f 307 306 308 309
f 307 309 15 13
f 309 308 310 311
f 309 311 17 15
f 311 310 312 313
f 311 313 19 17
f 313 312 314 315
f 313 315 21 19
f 315 314 316 317
f 315 317 23 21
f 317 316 318 319
f 317 319 25 23
f 319 318 320 321
f 319 321 27 25
f 321 320 322 323
f 321 323 29 27
f 323 322 324 325
f 323 325 31 29
f 325 324 326 327
f 325 327 33 31
f 327 326 328 329
f 327 329 35 33
f 329 328 330 331
f 329 331 37 35
f 331 330 332 333
f 331 333 39 37
f 333 332 334 335
f 333 335 41 39
f 335 334 336 337
f 335 337 43 41
f 337 336 69 338
f 337 338 45 43
f 338 69 65 64
f 338 64 47 45
f 336 74 70 69
f 336 334 339 74
f 339 79 75 74
f 339 334 332 340
f 339 340 341 79
f 341 84 80 79
f 341 340 342 343
f 341 343 344 84
f 344 89 85 84
f 344 343 345 346
f 344 346 347 89
f 347 94 90 89
f 347 346 348 349
f 347 349 350 94
f 350 99 95 94
f 350 349 351 352
f 350 352 353 99
f 353 104 100 99
f 353 352 354 355
f 353 355 356 104
f 356 109 105 104
f 356 355 357 358
f 356 358 359 109
f 359 114 110 109
f 359 358 360 361
f 359 361 362 114
f 362 119 115 114
f 362 361 363 364
f 362 364 365 119
f 365 124 120 119
f 365 364 366 367
f 365 367 368 124
f 368 129 125 124
f 368 367 369 370
f 368 370 371 129
f 371 134 130 129
f 371 370 372 373
f 371 373 374 134
f 374 139 135 134
f 374 373 375 376
f 374 376 377 139
f 377 144 140 139
f 377 376 378 379
f 377 379 380 144
f 380 149 145 144
f 380 379 381 382
f 380 382 383 149
f 383 154 150 149
f 383 382 384 385
f 383 385 386 154
f 386 159 155 154
f 386 385 387 388
f 386 388 389 159
f 389 164 160 159
f 389 388 390 391
f 389 391 392 164
f 392 169 165 164
f 392 391 393 394
f 392 394 395 169
f 395 174 170 169
f 395 394 396 397
f 395 397 398 174
f 398 179 175 174
f 398 397 399 400
f 398 400 401 179
f 401 182 180 179
f 401 400 402 403
f 401 403 184 182
f 403 402 404 405
f 403 405 186 184
f 405 404 406 407
f 405 407 188 186
f 407 406 408 409
f 407 409 190 188
f 409 408 410 411
f 409 411 192 190
f 411 410 412 413
f 411 413 194 192
f 413 412 414 415
f 413 415 196 194
f 415 414 416 417
f 415 417 198 196
f 417 416 418 419
f 417 419 200 198
f 419 418 420 421
f 419 421 202 200
f 421 420 422 423
f 421 423 204 202
f 423 422 424 425
f 423 425 206 204
f 425 424 426 427
f 425 427 208 206
f 427 426 428 429
f 427 429 210 208
f 429 428 430 431
f 429 431 212 210
f 431 430 432 433
f 431 433 214 212
f 433 432 434 435
f 433 435 216 214
f 435 434 235 436
f 435 436 218 216
f 436 235 233 232
f 436 232 220 218
f 434 432 437 238
f 434 238 236 235
f 437 432 430 438
f 437 438 439 241
f 437 241 239 238
f 439 438 440 441
f 439 441 442 244
f 439 244 242 241
f 442 441 443 444
f 442 444 445 247
f 442 247 245 244
f 445 444 446 447
f 445 447 448 250
f 445 250 248 247
f 448 447 449 450
f 448 450 451 253
f 448 253 251 250
f 451 450 452 453
f 451 453 454 256
f 451 256 254 253
f 454 453 455 456
f 454 456 457 259
f 454 259 257 256
f 457 456 458 459
f 457 459 460 262
f 457 262 260 259
f 460 459 461 462
f 460 462 463 265
f 460 265 263 262
f 463 462 464 465
f 463 465 466 268
f 463 268 266 265
f 466 465 467 468
f 466 468 469 271
f 466 271 269 268
f 469 468 470 471
f 469 471 472 274
f 469 274 272 271
f 472 471 473 474
f 472 474 475 277
f 472 277 275 274
f 475 474 476 477
f 475 477 478 280
f 475 280 278 277
f 478 477 479 480
f 478 480 481 283
f 478 283 281 280
f 481 480 482 483
f 481 483 484 286
f 481 286 284 283
f 484 483 485 486
f 484 486 487 289
f 484 289 287 286
f 487 486 488 489
f 487 489 490 292
f 487 292 290 289
f 490 489 491 492
f 490 492 493 295
f 490 295 293 292
f 493 492 494 495
f 493 495 300 298
f 493 298 296 295
f 495 494 496 497
f 495 497 302 300
f 497 496 498 499
f 497 499 304 302
f 499 498 500 501
f 499 501 306 304
f 501 500 502 503
f 501 503 308 306
f 503 502 504 505
f 503 505 310 308
f 505 504 506 507
f 505 507 312 310
f 507 506 508 509
f 507 509 314 312
f 509 508 510 511
f 509 511 316 314
f 511 510 512 513
f 511 513 318 316
f 513 512 514 515
f 513 515 320 318
f 515 514 516 517
f 515 517 322 320
f 517 516 518 519
f 517 519 324 322
f 519 518 520 521
f 519 521 326 324
f 521 520 345 522
f 521 522 328 326
f 522 345 343 342
f 522 342 330 328
f 520 348 346 345
f 520 518 523 348
f 523 351 349 348
f 523 518 516 524
f 523 524 525 351
f 525 354 352 351
f 525 524 526 527
f 525 527 528 354
f 528 357 355 354
f 528 527 529 530
f 528 530 531 357
f 531 360 358 357
f 531 530 532 533
f 531 533 534 360
f 534 363 361 360
f 534 533 535 536
f 534 536 537 363
f 537 366 364 363
f 537 536 538 539
f 537 539 540 366
f 540 369 367 366
f 540 539 541 542
f 540 542 543 369
f 543 372 370 369
f 543 542 544 545
f 543 545 546 372
f 546 375 373 372
f 546 545 547 548
f 546 548 549 375
f 549 378 376 375
f 549 548 550 551
f 549 551 552 378
f 552 381 379 378
f 552 551 553 554
f 552 554 555 381
f 555 384 382 381
f 555 554 556 557
f 555 557 558 384
f 558 387 385 384
f 558 557 559 560
f 558 560 561 387
f 561 390 388 387
f 561 560 562 563
f 561 563 564 390
f 564 393 391 390
f 564 563 565 566
f 564 566 567 393
f 567 396 394 393
f 567 566 568 569
f 567 569 570 396
f 570 399 397 396
f 570 569 571 572
f 570 572 573 399
f 573 402 400 399
f 573 572 574 575
f 573 575 404 402
f 575 574 576 577
f 575 577 406 404
f 577 576 578 579
f 577 579 408 406
f 579 578 580 581
f 579 581 410 408
f 581 580 582 583
f 581 583 412 410
f 583 582 584 585
f 583 585 414 412
f 585 584 586 587
f 585 587 416 414
f 587 586 588 589
f 587 589 418 416
f 589 588 590 591
f 589 591 420 418
f 591 590 592 593
f 591 593 422 420
f 593 592 594 595
f 593 595 424 422
f 595 594 443 596
f 595 596 426 424
f 596 443 441 440
f 596 440 428 426
f 594 592 597 446
f 594 446 444 443
f 597 592 590 598
f 597 598 599 449
f 597 449 447 446
f 599 598 600 601
f 599 601 602 452
f 599 452 450 449
f 602 601 603 604
f 602 604 605 455
f 602 455 453 452
f 605 604 606 607
f 605 607 608 458
f 605 458 456 455
f 608 607 609 610
f 608 610 611 461
f 608 461 459 458
f 611 610 612 613
f 611 613 614 464
f 611 464 462 461
f 614 613 615 616
f 614 616 617 467
f 614 467 465 464
f 617 616 618 619
f 617 619 620 470
f 617 470 468 467
f 620 619 621 622
f 620 622 623 473
f 620 473 471 470
f 623 622 624 625
f 623 625 626 476
f 623 476 474 473
f 626 625 627 628
f 626 628 629 479
f 626 479 477 476
f 629 628 630 631
f 629 631 632 482
f 629 482 480 479
f 632 631 633 634
f 632 634 635 485
f 632 485 483 482
f 635 634 636 637
f 635 637 638 488
f 635 488 486 485
f 638 637 639 640
f 638 640 641 491
f 638 491 489 488
f 641 640 642 643
f 641 643 496 494
f 641 494 492 491
f 643 642 644 645
f 643 645 498 496
f 645 644 646 647
f 645 647 500 498
f 647 646 648 649
f 647 649 502 500
f 649 648 650 651
f 649 651 504 502
f 651 650 652 653
f 651 653 506 504
f 653 652 654 655
f 653 655 508 506
f 655 654 656 657
f 655 657 510 508
f 657 656 529 658
f 657 658 512 510
f 658 529 527 526
f 658 526 514 512
f 656 532 530 529
f 656 654 659 532
f 659 535 533 532
f 659 654 652 660
f 659 660 661 535
f 661 538 536 535
f 661 660 662 663
f 661 663 664 538
f 664 541 539 538
f 664 663 665 666
f 664 666 667 541
f 667 544 542 541
f 667 666 668 669
f 667 669 670 544
f 670 547 545 544
f 670 669 671 672
f 670 672 673 547
f 673 550 548 547
f 673 672 674 675
f 673 675 676 550
f 676 553 551 550
f 676 675 677 678
f 676 678 679 553
f 679 556 554 553
f 679 678 680 681
f 679 681 682 556
f 682 559 557 556
f 682 681 683 684
f 682 684 685 559
f 685 562 560 559
f 685 684 686 687
f 685 687 688 562
f 688 565 563 562
f 688 687 689 690
f 688 690 691 565
f 691 568 566 565
f 691 690 692 693
f 691 693 694 568
f 694 571 569 568
f 694 693 695 696
f 694 696 697 571
f 697 574 572 571
f 697 696 698 699
f 697 699 576 574
f 699 698 700 701
f 699 701 578 576
f 701 700 702 703
f 701 703 580 578
f 703 702 704 705
f 703 705 582 580
f 705 704 706 707
f 705 707 584 582
f 707 706 603 708
f 707 708 586 584
f 708 603 601 600
f 708 600 588 586
f 706 704 709 606
f 706 606 604 603
f 709 704 702 710
f 709 710 711 609
f 709 609 607 606
f 711 710 712 713
f 711 713 714 612
f 711 612 610 609
f 714 713 715 716
f 714 716 717 615
f 714 615 613 612
f 717 716 718 719
f 717 719 720 618
f 717 618 616 615
f 720 719 721 722
f 720 722 723 621
f 720 621 619 618
f 723 722 724 725
f 723 725 726 624
f 723 624 622 621
f 726 725 727 728
f 726 728 729 627
f 726 627 625 624
f 729 728 730 731
f 729 731 732 630
f 729 630 628 627
f 732 731 733 734
f 732 734 735 633
f 732 633 631 630
f 735 734 736 737
f 735 737 738 636
f 735 636 634 633
f 738 737 739 740
f 738 740 741 639
f 738 639 637 636
f 741 740 742 743
f 741 743 644 642
f 741 642 640 639
f 743 742 744 745
f 743 745 646 644
f 745 744 665 746
f 745 746 648 646
f 746 665 663 662
f 746 662 650 648
f 744 668 666 665
f 744 742 747 668
f 747 671 669 668
f 747 742 740 739
f 747 739 748 671
f 748 674 672 671
f 748 739 737 736
f 748 736 749 674
f 749 677 675 674
f 749 736 734 733
f 749 733 750 677
f 750 680 678 677
f 750 733 731 730
f 750 730 751 680
f 751 683 681 680
f 751 730 728 727
f 751 727 752 683
f 752 686 684 683
f 752 727 725 724
f 752 724 753 686
f 753 689 687 686
f 753 724 722 721
f 753 721 754 689
f 754 692 690 689
f 754 721 719 718
f 754 718 755 692
f 755 695 693 692
f 755 718 716 715
f 755 715 756 695
f 756 698 696 695
f 756 715 713 712
f 756 712 700 698
f 712 710 702 700
f 662 660 652 650
f 600 598 590 588
f 526 524 516 514
f 440 438 430 428
f 342 340 332 330
f 232 230 222 220
f 64 60 49 47
f 1 758 757 2
f 1 6 759 758
f 760 759 6 8
f 10 761 760 8
f 761 10 12 762
f 762 12 14 763
f 763 14 16 764
f 16 18 765 764
f 18 20 766 765
f 20 22 767 766
f 22 24 768 767
f 24 26 769 768
f 26 28 770 769
f 28 30 771 770
f 30 32 772 771
f 32 34 773 772
f 34 36 774 773
f 36 38 775 774
f 38 40 776 775
f 40 42 777 776
f 42 44 778 777
f 44 46 779 778
f 46 48 780 779
f 48 50 781 780
f 50 52 782 781
f 52 54 783 782
f 54 2 757 783
f 783 757 785 784
f 783 784 786 782
f 786 784 788 787
f 786 789 781 782
f 786 787 790 789
f 790 787 792 791
f 790 794 793 789
f 790 791 795 794
f 795 791 797 796
f 795 799 798 794
f 795 796 800 799
f 800 796 802 801
f 800 804 803 799
f 800 801 805 804
f 805 801 807 806
f 805 809 808 804
f 805 806 810 809
f 810 806 812 811
f 810 814 813 809
f 810 811 815 814
f 815 811 817 816
f 815 819 818 814
f 815 816 820 819
f 820 816 822 821
f 820 824 823 819
f 820 821 825 824
f 825 821 827 826
f 825 829 828 824
f 825 826 830 829
f 830 826 832 831
f 830 834 833 829
f 830 831 835 834
f 835 831 837 836
f 835 839 838 834
f 835 836 840 839
f 840 836 842 841
f 840 844 843 839
f 840 841 845 844
f 845 841 847 846
f 845 849 848 844
f 845 846 850 849
f 850 846 852 851
f 850 854 853 849
f 850 851 855 854
f 855 851 857 856
f 855 859 858 854
f 855 856 860 859
f 860 856 862 861
f 860 864 863 859
f 860 861 865 864
f 865 861 867 866
f 865 869 868 864
f 865 866 870 869
f 870 866 872 871
f 870 874 873 869
f 870 871 875 874
f 875 871 877 876
f 875 879 878 874
f 875 876 880 879
f 880 876 882 881
f 880 884 883 879
f 880 881 885 884
f 885 881 887 886
f 885 889 888 884
f 885 886 890 889
f 890 886 892 891
f 890 894 893 889
f 890 891 895 894
f 895 891 897 896
f 895 899 898 894
f 895 896 900 899
f 900 896 902 901
f 900 904 903 899
f 900 901 905 904
f 905 901 178 177
f 905 907 906 904
f 905 177 181 907
f 181 183 908 907
f 183 185 909 908
f 185 187 910 909
f 187 189 911 910
f 189 191 912 911
f 191 193 913 912
f 193 195 914 913
f 195 197 915 914
f 197 199 916 915
f 199 201 917 916
f 201 203 918 917
f 203 205 919 918
f 205 207 920 919
f 207 209 921 920
f 209 211 922 921
f 211 213 923 922
f 213 215 924 923
f 215 217 925 924
f 217 219 926 925
f 219 221 927 926
f 221 223 928 927
f 223 225 929 928
f 225 227 930 929
f 227 228 902 930
f 228 178 901 902
f 930 897 931 929
f 930 902 896 897
f 931 932 928 929
f 931 892 933 932
f 931 897 891 892
f 933 935 934 932
f 933 887 936 935
f 933 892 886 887
f 936 938 937 935
f 936 882 939 938
f 936 887 881 882
f 939 941 940 938
f 939 877 942 941
f 939 882 876 877
f 942 944 943 941
f 942 872 945 944
f 942 877 871 872
f 945 947 946 944
f 945 867 948 947
f 945 872 866 867
f 948 950 949 947
f 948 862 951 950
f 948 867 861 862
f 951 953 952 950
f 951 857 954 953
f 951 862 856 857
f 954 956 955 953
f 954 852 957 956
f 954 857 851 852
f 957 959 958 956
f 957 847 960 959
f 957 852 846 847
f 960 962 961 959
f 960 842 963 962
f 960 847 841 842
f 963 965 964 962
f 963 837 966 965
f 963 842 836 837
f 966 968 967 965
f 966 832 969 968
f 966 837 831 832
f 969 971 970 968
f 969 827 972 971
f 969 832 826 827
f 972 974 973 971
f 972 822 975 974
f 972 827 821 822
f 975 977 976 974
f 975 817 978 977
f 975 822 816 817
f 978 980 979 977
f 978 812 981 980
f 978 817 811 812
f 981 983 982 980
f 981 807 984 983
f 981 812 806 807
f 984 986 985 983
f 984 802 987 986
f 984 807 801 802
f 987 989 988 986
f 987 797 990 989
f 987 802 796 797
f 990 992 991 989
f 990 792 993 992
f 990 797 791 792
f 993 995 994 992
f 993 788 996 995
f 993 792 787 788
f 996 998 997 995
f 996 785 999 998
f 996 788 784 785
f 999 1001 1000 998
f 999 758 759 1001
f 999 785 757 758
f 1001 1003 1002 1000
f 1001 759 760 1003
f 1003 1005 1004 1002
f 1003 760 761 1005
f 1005 1007 1006 1004
f 1005 761 762 1007
f 1007 1009 1008 1006
f 1007 762 763 1009
f 1009 1011 1010 1008
f 1009 763 764 1011
f 1011 1013 1012 1010
f 1011 764 765 1013
f 1013 1015 1014 1012
f 1013 765 766 1015
f 1015 1017 1016 1014
f 1015 766 767 1017
f 1017 1019 1018 1016
f 1017 767 768 1019
f 1019 1021 1020 1018
f 1019 768 769 1021
f 1021 1023 1022 1020
f 1021 769 770 1023
f 1023 1025 1024 1022
f 1023 770 771 1025
f 1025 1027 1026 1024
f 1025 771 772 1027
f 1027 1029 1028 1026
f 1027 772 773 1029
f 1029 1031 1030 1028
f 1029 773 774 1031
f 1031 1033 1032 1030
f 1031 774 775 1033
f 1033 1035 1034 1032
f 1033 775 776 1035
f 1035 1037 1036 1034
f 1035 776 777 1037
f 1037 1039 1038 1036
f 1037 777 778 1039
f 1039 1040 798 1038
f 1039 778 779 1040
f 1040 793 794 798
f 1040 779 780 793
f 1038 798 799 803
f 1038 803 1041 1036
f 1041 803 804 808
f 1041 1042 1034 1036
f 1041 808 1043 1042
f 1043 808 809 813
f 1043 1045 1044 1042
f 1043 813 1046 1045
f 1046 813 814 818
f 1046 1048 1047 1045
f 1046 818 1049 1048
f 1049 818 819 823
f 1049 1051 1050 1048
f 1049 823 1052 1051
f 1052 823 824 828
f 1052 1054 1053 1051
f 1052 828 1055 1054
f 1055 828 829 833
f 1055 1057 1056 1054
f 1055 833 1058 1057
f 1058 833 834 838
f 1058 1060 1059 1057
f 1058 838 1061 1060
f 1061 838 839 843
f 1061 1063 1062 1060
f 1061 843 1064 1063
f 1064 843 844 848
f 1064 1066 1065 1063
f 1064 848 1067 1066
f 1067 848 849 853
f 1067 1069 1068 1066
f 1067 853 1070 1069
f 1070 853 854 858
f 1070 1072 1071 1069
f 1070 858 1073 1072
f 1073 858 859 863
f 1073 1075 1074 1072
f 1073 863 1076 1075
f 1076 863 864 868
f 1076 1078 1077 1075
f 1076 868 1079 1078
f 1079 868 869 873
f 1079 1081 1080 1078
f 1079 873 1082 1081
f 1082 873 874 878
f 1082 1084 1083 1081
f 1082 878 1085 1084
f 1085 878 879 883
f 1085 1087 1086 1084
f 1085 883 1088 1087
f 1088 883 884 888
f 1088 1090 1089 1087
f 1088 888 1091 1090
f 1091 888 889 893
f 1091 1093 1092 1090
f 1091 893 1094 1093
f 1094 893 894 898
f 1094 1096 1095 1093
f 1094 898 1097 1096
f 1097 898 899 903
f 1097 1099 1098 1096
f 1097 903 1100 1099
f 1100 903 904 906
f 1100 1102 1101 1099
f 1100 906 1103 1102
f 1103 906 907 908
f 1103 1105 1104 1102
f 1103 908 909 1105
f 1105 1107 1106 1104
f 1105 909 910 1107
f 1107 1109 1108 1106
f 1107 910 911 1109
f 1109 1111 1110 1108
f 1109 911 912 1111
f 1111 1113 1112 1110
f 1111 912 913 1113
f 1113 1115 1114 1112
f 1113 913 914 1115
f 1115 1117 1116 1114
f 1115 914 915 1117
f 1117 1119 1118 1116
f 1117 915 916 1119
f 1119 1121 1120 1118
f 1119 916 917 1121
f 1121 1123 1122 1120
f 1121 917 918 1123
f 1123 1125 1124 1122
f 1123 918 919 1125
f 1125 1127 1126 1124
f 1125 919 920 1127
f 1127 1129 1128 1126
f 1127 920 921 1129
f 1129 1131 1130 1128
f 1129 921 922 1131
f 1131 1133 1132 1130
f 1131 922 923 1133
f 1133 1135 1134 1132
f 1133 923 924 1135
f 1135 1137 1136 1134
f 1135 924 925 1137
f 1137 1138 937 1136
f 1137 925 926 1138
f 1138 934 935 937
f 1138 926 927 934
f 1136 940 1139 1134
f 1136 937 938 940
f 1139 1140 1132 1134
f 1139 943 1141 1140
f 1139 940 941 943
f 1141 1143 1142 1140
f 1141 946 1144 1143
f 1141 943 944 946
f 1144 1146 1145 1143
f 1144 949 1147 1146
f 1144 946 947 949
f 1147 1149 1148 1146
f 1147 952 1150 1149
f 1147 949 950 952
f 1150 1152 1151 1149
f 1150 955 1153 1152
f 1150 952 953 955
f 1153 1155 1154 1152
f 1153 958 1156 1155
f 1153 955 956 958
f 1156 1158 1157 1155
f 1156 961 1159 1158
f 1156 958 959 961
f 1159 1161 1160 1158
f 1159 964 1162 1161
f 1159 961 962 964
f 1162 1164 1163 1161
f 1162 967 1165 1164
f 1162 964 965 967
f 1165 1167 1166 1164
f 1165 970 1168 1167
f 1165 967 968 970
f 1168 1170 1169 1167
f 1168 973 1171 1170
f 1168 970 971 973
f 1171 1173 1172 1170
f 1171 976 1174 1173
f 1171 973 974 976
f 1174 1176 1175 1173
f 1174 979 1177 1176
f 1174 976 977 979
f 1177 1179 1178 1176
f 1177 982 1180 1179
f 1177 979 980 982
f 1180 1182 1181 1179
f 1180 985 1183 1182
f 1180 982 983 985
f 1183 1185 1184 1182
f 1183 988 1186 1185
f 1183 985 986 988
f 1186 1188 1187 1185
f 1186 991 1189 1188
f 1186 988 989 991
f 1189 1191 1190 1188
f 1189 994 1192 1191
f 1189 991 992 994
f 1192 1194 1193 1191
f 1192 997 1195 1194
f 1192 994 995 997
f 1195 1197 1196 1194
f 1195 1000 1002 1197
f 1195 997 998 1000
f 1197 1199 1198 1196
f 1197 1002 1004 1199
f 1199 1201 1200 1198
f 1199 1004 1006 1201
f 1201 1203 1202 1200
f 1201 1006 1008 1203
f 1203 1205 1204 1202
f 1203 1008 1010 1205
f 1205 1207 1206 1204
f 1205 1010 1012 1207
f 1207 1209 1208 1206
f 1207 1012 1014 1209
f 1209 1211 1210 1208
f 1209 1014 1016 1211
f 1211 1213 1212 1210
f 1211 1016 1018 1213
f 1213 1215 1214 1212
f 1213 1018 1020 1215
f 1215 1217 1216 1214
f 1215 1020 1022 1217
f 1217 1219 1218 1216
f 1217 1022 1024 1219
f 1219 1221 1220 1218
f 1219 1024 1026 1221
f 1221 1223 1222 1220
f 1221 1026 1028 1223
f 1223 1224 1047 1222
f 1223 1028 1030 1224
f 1224 1044 1045 1047
f 1224 1030 1032 1044
f 1222 1047 1048 1050
f 1222 1050 1225 1220
f 1225 1050 1051 1053
f 1225 1226 1218 1220
f 1225 1053 1227 1226
f 1227 1053 1054 1056
f 1227 1229 1228 1226
f 1227 1056 1230 1229
f 1230 1056 1057 1059
f 1230 1232 1231 1229
f 1230 1059 1233 1232
f 1233 1059 1060 1062
f 1233 1235 1234 1232
f 1233 1062 1236 1235
f 1236 1062 1063 1065
f 1236 1238 1237 1235
f 1236 1065 1239 1238
f 1239 1065 1066 1068
f 1239 1241 1240 1238
f 1239 1068 1242 1241
f 1242 1068 1069 1071
f 1242 1244 1243 1241
f 1242 1071 1245 1244
f 1245 1071 1072 1074
f 1245 1247 1246 1244
f 1245 1074 1248 1247
f 1248 1074 1075 1077
f 1248 1250 1249 1247
f 1248 1077 1251 1250
f 1251 1077 1078 1080
f 1251 1253 1252 1250
f 1251 1080 1254 1253
f 1254 1080 1081 1083
f 1254 1256 1255 1253
f 1254 1083 1257 1256
f 1257 1083 1084 1086
f 1257 1259 1258 1256
f 1257 1086 1260 1259
f 1260 1086 1087 1089
f 1260 1262 1261 1259
f 1260 1089 1263 1262
f 1263 1089 1090 1092
f 1263 1265 1264 1262
f 1263 1092 1266 1265
f 1266 1092 1093 1095
f 1266 1268 1267 1265
f 1266 1095 1269 1268
f 1269 1095 1096 1098
f 1269 1271 1270 1268
f 1269 1098 1272 1271
f 1272 1098 1099 1101
f 1272 1274 1273 1271
f 1272 1101 1275 1274
f 1275 1101 1102 1104
f 1275 1277 1276 1274
f 1275 1104 1106 1277
f 1277 1279 1278 1276
f 1277 1106 1108 1279
f 1279 1281 1280 1278
f 1279 1108 1110 1281
f 1281 1283 1282 1280
f 1281 1110 1112 1283
f 1283 1285 1284 1282
f 1283 1112 1114 1285
f 1285 1287 1286 1284
f 1285 1114 1116 1287
f 1287 1289 1288 1286
f 1287 1116 1118 1289
f 1289 1291 1290 1288
f 1289 1118 1120 1291
f 1291 1293 1292 1290
f 1291 1120 1122 1293
f 1293 1295 1294 1292
f 1293 1122 1124 1295
f 1295 1297 1296 1294
f 1295 1124 1126 1297
f 1297 1298 1145 1296
f 1297 1126 1128 1298
f 1298 1142 1143 1145
f 1298 1128 1130 1142
f 1296 1148 1299 1294
f 1296 1145 1146 1148
f 1299 1300 1292 1294
f 1299 1151 1301 1300
f 1299 1148 1149 1151
f 1301 1303 1302 1300
f 1301 1154 1304 1303
f 1301 1151 1152 1154
f 1304 1306 1305 1303
f 1304 1157 1307 1306
f 1304 1154 1155 1157
f 1307 1309 1308 1306
f 1307 1160 1310 1309
f 1307 1157 1158 1160
f 1310 1312 1311 1309
f 1310 1163 1313 1312
f 1310 1160 1161 1163
f 1313 1315 1314 1312
f 1313 1166 1316 1315
f 1313 1163 1164 1166
f 1316 1318 1317 1315
f 1316 1169 1319 1318
f 1316 1166 1167 1169
f 1319 1321 1320 1318
f 1319 1172 1322 1321
f 1319 1169 1170 1172
f 1322 1324 1323 1321
f 1322 1175 1325 1324
f 1322 1172 1173 1175
f 1325 1327 1326 1324
f 1325 1178 1328 1327
f 1325 1175 1176 1178
f 1328 1330 1329 1327
f 1328 1181 1331 1330
f 1328 1178 1179 1181
f 1331 1333 1332 1330
f 1331 1184 1334 1333
f 1331 1181 1182 1184
f 1334 1336 1335 1333
f 1334 1187 1337 1336
f 1334 1184 1185 1187
f 1337 1339 1338 1336
f 1337 1190 1340 1339
f 1337 1187 1188 1190
f 1340 1342 1341 1339
f 1340 1193 1343 1342
f 1340 1190 1191 1193
f 1343 1345 1344 1342
f 1343 1196 1198 1345
f 1343 1193 1194 1196
f 1345 1347 1346 1344
f 1345 1198 1200 1347
f 1347 1349 1348 1346
f 1347 1200 1202 1349
f 1349 1351 1350 1348
f 1349 1202 1204 1351
f 1351 1353 1352 1350
f 1351 1204 1206 1353
f 1353 1355 1354 1352
f 1353 1206 1208 1355
f 1355 1357 1356 1354
f 1355 1208 1210 1357
f 1357 1359 1358 1356
f 1357 1210 1212 1359
f 1359 1360 1231 1358
f 1359 1212 1214 1360
f 1360 1228 1229 1231
f 1360 1214 1216 1228
f 1358 1231 1232 1234
f 1358 1234 1361 1356
f 1361 1234 1235 1237
f 1361 1362 1354 1356
f 1361 1237 1363 1362
f 1363 1237 1238 1240
f 1363 1365 1364 1362
f 1363 1240 1366 1365
f 1366 1240 1241 1243
f 1366 1368 1367 1365
f 1366 1243 1369 1368
f 1369 1243 1244 1246
f 1369 1371 1370 1368
f 1369 1246 1372 1371
f 1372 1246 1247 1249
f 1372 1374 1373 1371
f 1372 1249 1375 1374
f 1375 1249 1250 1252
f 1375 1377 1376 1374
f 1375 1252 1378 1377
f 1378 1252 1253 1255
f 1378 1380 1379 1377
f 1378 1255 1381 1380
f 1381 1255 1256 1258
f 1381 1383 1382 1380
f 1381 1258 1384 1383
f 1384 1258 1259 1261
f 1384 1386 1385 1383
f 1384 1261 1387 1386
f 1387 1261 1262 1264
f 1387 1389 1388 1386
f 1387 1264 1390 1389
f 1390 1264 1265 1267
f 1390 1392 1391 1389
f 1390 1267 1393 1392
f 1393 1267 1268 1270
f 1393 1395 1394 1392
f 1393 1270 1396 1395
f 1396 1270 1271 1273
f 1396 1398 1397 1395
f 1396 1273 1399 1398
f 1399 1273 1274 1276
f 1399 1401 1400 1398
f 1399 1276 1278 1401
f 1401 1403 1402 1400
f 1401 1278 1280 1403
f 1403 1405 1404 1402
f 1403 1280 1282 1405
f 1405 1407 1406 1404
f 1405 1282 1284 1407
f 1407 1409 1408 1406
f 1407 1284 1286 1409
f 1409 1410 1305 1408
f 1409 1286 1288 1410
f 1410 1302 1303 1305
f 1410 1288 1290 1302
f 1408 1308 1411 1406
f 1408 1305 1306 1308
f 1411 1412 1404 1406
f 1411 1311 1413 1412
f 1411 1308 1309 1311
f 1413 1415 1414 1412
f 1413 1314 1416 1415
f 1413 1311 1312 1314
f 1416 1418 1417 1415
f 1416 1317 1419 1418
f 1416 1314 1315 1317
f 1419 1421 1420 1418
f 1419 1320 1422 1421
f 1419 1317 1318 1320
f 1422 1424 1423 1421
f 1422 1323 1425 1424
f 1422 1320 1321 1323
f 1425 1427 1426 1424
f 1425 1326 1428 1427
f 1425 1323 1324 1326
f 1428 1430 1429 1427
f 1428 1329 1431 1430
f 1428 1326 1327 1329
f 1431 1433 1432 1430
f 1431 1332 1434 1433
f 1431 1329 1330 1332
f 1434 1436 1435 1433
f 1434 1335 1437 1436
f 1434 1332 1333 1335
f 1437 1439 1438 1436
f 1437 1338 1440 1439
f 1437 1335 1336 1338
f 1440 1442 1441 1439
f 1440 1341 1443 1442
f 1440 1338 1339 1341
f 1443 1445 1444 1442
f 1443 1344 1346 1445
f 1443 1341 1342 1344
f 1445 1447 1446 1444
f 1445 1346 1348 1447
f 1447 1448 1367 1446
f 1447 1348 1350 1448
f 1448 1364 1365 1367
f 1448 1350 1352 1364
f 1446 1367 1368 1370
f 1446 1370 1449 1444
f 1449 1370 1371 1373
f 1449 1441 1442 1444
f 1449 1373 1450 1441
f 1450 1373 1374 1376
f 1450 1438 1439 1441
f 1450 1376 1451 1438
f 1451 1376 1377 1379
f 1451 1435 1436 1438
f 1451 1379 1452 1435
f 1452 1379 1380 1382
f 1452 1432 1433 1435
f 1452 1382 1453 1432
f 1453 1382 1383 1385
f 1453 1429 1430 1432
f 1453 1385 1454 1429
f 1454 1385 1386 1388
f 1454 1426 1427 1429
f 1454 1388 1455 1426
f 1455 1388 1389 1391
f 1455 1423 1424 1426
f 1455 1391 1456 1423
f 1456 1391 1392 1394
f 1456 1420 1421 1423
f 1456 1394 1457 1420
f 1457 1394 1395 1397
f 1457 1417 1418 1420
f 1457 1397 1458 1417
f 1458 1397 1398 1400
f 1458 1414 1415 1417
f 1458 1400 1402 1414
f 1414 1402 1404 1412
f 1364 1352 1354 1362
f 1302 1290 1292 1300
f 1228 1216 1218 1226
f 1142 1130 1132 1140
f 1044 1032 1034 1042
f 934 927 928 932
f 793 780 781 789

 